<?xml version="1.0" encoding="UTF-8"?>
<!DOCTYPE svg PUBLIC "-//W3C//DTD SVG 1.1//EN" "http://www.w3.org/Graphics/SVG/1.1/DTD/svg11.dtd">
<svg xmlns="http://www.w3.org/2000/svg" version="1.1" width="3001px" height="3001px" style="shape-rendering:geometricPrecision; text-rendering:geometricPrecision; image-rendering:optimizeQuality; fill-rule:evenodd; clip-rule:evenodd" xmlns:xlink="http://www.w3.org/1999/xlink">
<g><path style="opacity:0.999" fill="#0c5e73" d="M 0.5,-0.5 C 1000.5,-0.5 2000.5,-0.5 3000.5,-0.5C 3000.5,999.833 3000.5,2000.17 3000.5,3000.5C 2000.17,3000.5 999.833,3000.5 -0.5,3000.5C -0.5,2000.5 -0.5,1000.5 -0.5,0.5C 0.166667,0.5 0.5,0.166667 0.5,-0.5 Z"/></g>
<g><path style="opacity:1" fill="#11a587" d="M 1425.5,796.5 C 1425.89,798.284 1426.56,799.95 1427.5,801.5C 1445.08,845.246 1439.25,885.579 1410,922.5C 1374.06,958.707 1331.89,968.54 1283.5,952C 1277.98,949.409 1272.65,946.575 1267.5,943.5C 1266,942.248 1264.33,941.248 1262.5,940.5C 1218.88,906.521 1205.04,862.854 1221,809.5C 1240.8,763.425 1275.8,739.092 1326,736.5C 1370.39,738.264 1403.56,758.264 1425.5,796.5 Z"/></g>
<g><path style="opacity:1" fill="#10232a" d="M 1653.5,876.5 C 1705.85,946.993 1716.02,1023.33 1684,1105.5C 1654.18,1171.16 1604.68,1214.16 1535.5,1234.5C 1503.59,1242.87 1471.26,1244.7 1438.5,1240C 1427.18,1238.25 1416.18,1235.42 1405.5,1231.5C 1343.63,1210.47 1298.47,1170.47 1270,1111.5C 1261.3,1091.57 1255.13,1070.9 1251.5,1049.5C 1246.02,1012.17 1249.69,975.838 1262.5,940.5C 1264.33,941.248 1266,942.248 1267.5,943.5C 1255.91,978.458 1252.91,1014.12 1258.5,1050.5C 1272.58,1126.18 1313.91,1181.34 1382.5,1216C 1390.66,1219.66 1399,1222.83 1407.5,1225.5C 1447.78,1238.57 1488.44,1239.9 1529.5,1229.5C 1608.14,1207.7 1660.31,1158.03 1686,1080.5C 1704.98,1014.34 1695.98,952.34 1659,894.5C 1654.64,888.646 1650.14,882.979 1645.5,877.5C 1614.2,838.99 1574.2,813.823 1525.5,802C 1492.83,795.026 1460.16,794.859 1427.5,801.5C 1426.56,799.95 1425.89,798.284 1425.5,796.5C 1504.1,780.131 1573.1,798.964 1632.5,853C 1639.74,860.73 1646.74,868.563 1653.5,876.5 Z"/></g>
<g><path style="opacity:1" fill="#0d5e73" d="M 1645.5,877.5 C 1564.22,897.944 1510.39,947.944 1484,1027.5C 1465.14,1102.72 1480.31,1170.05 1529.5,1229.5C 1488.44,1239.9 1447.78,1238.57 1407.5,1225.5C 1412.85,1168.34 1393.85,1121.17 1350.5,1084C 1323.48,1063 1292.82,1051.83 1258.5,1050.5C 1252.91,1014.12 1255.91,978.458 1267.5,943.5C 1272.65,946.575 1277.98,949.409 1283.5,952C 1331.89,968.54 1374.06,958.707 1410,922.5C 1439.25,885.579 1445.08,845.246 1427.5,801.5C 1460.16,794.859 1492.83,795.026 1525.5,802C 1574.2,813.823 1614.2,838.99 1645.5,877.5 Z"/></g>
<g><path style="opacity:1" fill="#fefefe" d="M 1535.5,1234.5 C 1604.68,1214.16 1654.18,1171.16 1684,1105.5C 1716.02,1023.33 1705.85,946.993 1653.5,876.5C 1743.09,864.52 1814.59,894.854 1868,967.5C 1908.65,1031.32 1915.31,1098.66 1888,1169.5C 1848.48,1254.38 1781.64,1298.38 1687.5,1301.5C 1628.84,1299.74 1578.68,1278.41 1537,1237.5C 1536.49,1236.47 1535.99,1235.47 1535.5,1234.5 Z"/></g>
<g><path style="opacity:1" fill="#fefefe" d="M 1645.5,877.5 C 1650.14,882.979 1654.64,888.646 1659,894.5C 1695.98,952.34 1704.98,1014.34 1686,1080.5C 1660.31,1158.03 1608.14,1207.7 1529.5,1229.5C 1480.31,1170.05 1465.14,1102.72 1484,1027.5C 1510.39,947.944 1564.22,897.944 1645.5,877.5 Z"/></g>
<g><path style="opacity:1" fill="#f29e1e" d="M 1251.5,1049.5 C 1255.13,1070.9 1261.3,1091.57 1270,1111.5C 1298.47,1170.47 1343.63,1210.47 1405.5,1231.5C 1396.87,1280.28 1371.21,1317.11 1328.5,1342C 1265.2,1373.4 1205.87,1367.4 1150.5,1324C 1107.14,1283.74 1089.97,1234.24 1099,1175.5C 1115.61,1109.23 1157.11,1068.06 1223.5,1052C 1232.81,1050.84 1242.14,1050 1251.5,1049.5 Z"/></g>
<g><path style="opacity:1" fill="#f29e1e" d="M 1258.5,1050.5 C 1292.82,1051.83 1323.48,1063 1350.5,1084C 1393.85,1121.17 1412.85,1168.34 1407.5,1225.5C 1399,1222.83 1390.66,1219.66 1382.5,1216C 1313.91,1181.34 1272.58,1126.18 1258.5,1050.5 Z"/></g>
<g><path style="opacity:1" fill="#fdfdfe" d="M 669.5,1549.5 C 696.79,1548.97 713.29,1561.97 719,1588.5C 719.788,1612.7 708.621,1628.2 685.5,1635C 658.889,1638.28 641.722,1627.11 634,1601.5C 631.857,1574.5 643.69,1557.16 669.5,1549.5 Z"/></g>
<g><path style="opacity:1" fill="#d2d8de" d="M 466.5,1563.5 C 466.5,1560.83 466.5,1558.17 466.5,1555.5C 429.5,1555.5 392.5,1555.5 355.5,1555.5C 355.5,1558.5 355.5,1561.5 355.5,1564.5C 354.521,1561.38 354.187,1558.04 354.5,1554.5C 392.167,1554.5 429.833,1554.5 467.5,1554.5C 467.81,1557.71 467.477,1560.71 466.5,1563.5 Z"/></g>
<g><path style="opacity:1" fill="#fdfefe" d="M 466.5,1563.5 C 463.204,1567.3 459.704,1570.96 456,1574.5C 452.72,1578.66 450.387,1583.32 449,1588.5C 448.5,1677.17 448.333,1765.83 448.5,1854.5C 476.169,1854.67 503.835,1854.5 531.5,1854C 560.486,1848.83 582.486,1833.66 597.5,1808.5C 600.768,1807.51 604.102,1807.18 607.5,1807.5C 604.115,1832.46 601.115,1857.46 598.5,1882.5C 517.167,1882.5 435.833,1882.5 354.5,1882.5C 354.335,1879.48 354.502,1876.48 355,1873.5C 364.595,1866.9 370.595,1857.9 373,1846.5C 373.667,1760.5 373.667,1674.5 373,1588.5C 369.845,1578.51 364.011,1570.51 355.5,1564.5C 355.5,1561.5 355.5,1558.5 355.5,1555.5C 392.5,1555.5 429.5,1555.5 466.5,1555.5C 466.5,1558.17 466.5,1560.83 466.5,1563.5 Z"/></g>
<g><path style="opacity:1" fill="#fefefe" d="M 2058.5,1554.5 C 2065.83,1554.5 2073.17,1554.5 2080.5,1554.5C 2080.33,1652.17 2080.5,1749.83 2081,1847.5C 2081.09,1857.26 2085.92,1861.76 2095.5,1861C 2098.24,1859.93 2100.74,1858.43 2103,1856.5C 2103.17,1857.17 2103.33,1857.83 2103.5,1858.5C 2099.78,1869.03 2092.78,1876.53 2082.5,1881C 2066.13,1887.64 2049.46,1888.64 2032.5,1884C 2020.58,1879.08 2012.41,1870.58 2008,1858.5C 1989.78,1879.69 1966.61,1889.19 1938.5,1887C 1888.02,1882.86 1855.85,1856.36 1842,1807.5C 1831.41,1768.55 1835.41,1731.22 1854,1695.5C 1878.54,1657.98 1913.37,1640.81 1958.5,1644C 1976.54,1645.28 1992.04,1652.11 2005,1664.5C 2005.67,1644.17 2005.67,1623.83 2005,1603.5C 2002.14,1592.65 1996.14,1583.98 1987,1577.5C 1986.5,1574.52 1986.34,1571.52 1986.5,1568.5C 2010.75,1564.43 2034.75,1559.76 2058.5,1554.5 Z"/></g>
<g><path style="opacity:1" fill="#fdfefe" d="M 1225.5,1583.5 C 1235.05,1583.03 1244.38,1584.2 1253.5,1587C 1273.08,1597.35 1277.91,1612.52 1268,1632.5C 1262.32,1638.01 1255.49,1640.67 1247.5,1640.5C 1241.48,1639.67 1235.48,1638.5 1229.5,1637C 1218.48,1635.99 1210.15,1640.33 1204.5,1650C 1261.62,1671.39 1283.12,1711.89 1269,1771.5C 1255.89,1805.83 1231.39,1827.33 1195.5,1836C 1159.68,1844.56 1125.01,1841.39 1091.5,1826.5C 1092.12,1830.23 1094.12,1833.06 1097.5,1835C 1109.89,1840.55 1122.89,1843.55 1136.5,1844C 1159.83,1845.1 1183.16,1846.1 1206.5,1847C 1226.84,1848.25 1246.17,1853.25 1264.5,1862C 1282.44,1874.44 1289.94,1891.61 1287,1913.5C 1280.88,1941.29 1264.38,1960.12 1237.5,1970C 1197.36,1983.41 1156.69,1985.08 1115.5,1975C 1091.84,1969.42 1071.34,1958.26 1054,1941.5C 1043.01,1928.53 1038.01,1913.53 1039,1896.5C 1049.96,1871.3 1067.79,1864.8 1092.5,1877C 1108.63,1891.61 1110.79,1908.11 1099,1926.5C 1095.96,1929.93 1092.46,1932.77 1088.5,1935C 1101.65,1944.39 1116.32,1950.05 1132.5,1952C 1153.45,1955.5 1173.78,1953.5 1193.5,1946C 1211.04,1937.44 1215.21,1924.6 1206,1907.5C 1198.79,1899.64 1189.96,1894.48 1179.5,1892C 1157.35,1886.44 1135.01,1881.77 1112.5,1878C 1095.8,1874.57 1081.3,1867.07 1069,1855.5C 1064.75,1848.74 1063.42,1841.41 1065,1833.5C 1067.85,1827.15 1071.69,1821.48 1076.5,1816.5C 1041.68,1785.86 1031.85,1748.52 1047,1704.5C 1062.89,1673.44 1088.05,1654.27 1122.5,1647C 1142.77,1643.04 1163.1,1642.54 1183.5,1645.5C 1181.15,1613.48 1195.15,1592.81 1225.5,1583.5 Z"/></g>
<g><path style="opacity:1" fill="#fefefe" d="M 865.5,1873.5 C 865.5,1876.5 865.5,1879.5 865.5,1882.5C 828.167,1882.5 790.833,1882.5 753.5,1882.5C 753.335,1879.48 753.502,1876.48 754,1873.5C 764.035,1866.76 770.035,1857.43 772,1845.5C 772.667,1796.17 772.667,1746.83 772,1697.5C 769.17,1686.82 763.17,1678.49 754,1672.5C 753.333,1669.17 753.333,1665.83 754,1662.5C 777.732,1657.73 801.565,1653.23 825.5,1649C 832.492,1648.5 839.492,1648.33 846.5,1648.5C 846.168,1660.19 846.501,1671.85 847.5,1683.5C 848.107,1683.38 848.44,1683.04 848.5,1682.5C 874.495,1648 908.495,1636.5 950.5,1648C 973.501,1657 988.001,1673.5 994,1697.5C 995.722,1703.72 996.722,1710.05 997,1716.5C 997.333,1761.83 997.667,1807.17 998,1852.5C 1003.45,1862.9 1010.78,1864.24 1020,1856.5C 1020.07,1860.61 1018.74,1864.28 1016,1867.5C 1003.87,1880.81 988.706,1887.47 970.5,1887.5C 940.866,1887.03 925.033,1872.03 923,1842.5C 922.667,1801.5 922.333,1760.5 922,1719.5C 920.913,1705.83 915.413,1694.33 905.5,1685C 882.835,1674.22 865.669,1680.06 854,1702.5C 851.229,1708.58 849.229,1714.91 848,1721.5C 847.333,1764.17 847.333,1806.83 848,1849.5C 851.656,1859.17 857.489,1867.17 865.5,1873.5 Z"/></g>
<g><path style="opacity:1" fill="#fefefe" d="M 1672.5,1643.5 C 1697.48,1642.03 1721.81,1645.19 1745.5,1653C 1774.52,1664.36 1791.35,1685.53 1796,1716.5C 1796.03,1762.2 1796.7,1807.87 1798,1853.5C 1800.25,1859.93 1804.75,1862.43 1811.5,1861C 1814.24,1859.93 1816.74,1858.43 1819,1856.5C 1818.57,1860.38 1817.24,1864.05 1815,1867.5C 1801.76,1881.87 1785.26,1888.53 1765.5,1887.5C 1742.95,1886.41 1728.62,1875.08 1722.5,1853.5C 1703.43,1878.53 1678.09,1889.7 1646.5,1887C 1602.56,1879.73 1581.39,1853.9 1583,1809.5C 1586.8,1790.08 1596.96,1774.91 1613.5,1764C 1625.16,1756.67 1637.49,1750.67 1650.5,1746C 1665.17,1740.67 1679.83,1735.33 1694.5,1730C 1700.16,1727.51 1705.49,1724.51 1710.5,1721C 1718.5,1714.69 1720,1707.19 1715,1698.5C 1704.19,1677.68 1687.02,1667.51 1663.5,1668C 1660.97,1668.62 1658.63,1669.62 1656.5,1671C 1674.27,1690.34 1673.61,1709.01 1654.5,1727C 1634.93,1738.23 1618.1,1735.06 1604,1717.5C 1593.57,1695.73 1597.73,1677.23 1616.5,1662C 1633.78,1651.39 1652.44,1645.22 1672.5,1643.5 Z"/></g>
<g><path style="opacity:1" fill="#fefefe" d="M 732.5,1882.5 C 695.167,1882.5 657.833,1882.5 620.5,1882.5C 620.5,1879.5 620.5,1876.5 620.5,1873.5C 630.043,1866.45 636.21,1857.11 639,1845.5C 639.667,1796.83 639.667,1748.17 639,1699.5C 636.595,1688.1 630.595,1679.1 621,1672.5C 620.176,1669.12 620.343,1665.78 621.5,1662.5C 644.48,1657.94 667.48,1653.44 690.5,1649C 698.159,1648.5 705.826,1648.33 713.5,1648.5C 713.333,1714.5 713.5,1780.5 714,1846.5C 716.762,1857.7 722.762,1866.7 732,1873.5C 732.498,1876.48 732.665,1879.48 732.5,1882.5 Z"/></g>
<g><path style="opacity:1" fill="#b1bcc6" d="M 846.5,1648.5 C 847.167,1659.83 847.833,1671.17 848.5,1682.5C 848.44,1683.04 848.107,1683.38 847.5,1683.5C 846.501,1671.85 846.168,1660.19 846.5,1648.5 Z"/></g>
<g><path style="opacity:1" fill="#fefefe" d="M 1366.5,1648.5 C 1374.17,1648.5 1381.83,1648.5 1389.5,1648.5C 1389.33,1702.83 1389.5,1757.17 1390,1811.5C 1391.4,1823.37 1395.73,1834.04 1403,1843.5C 1421.33,1856.64 1437.99,1854.64 1453,1837.5C 1459.23,1828.47 1462.9,1818.47 1464,1807.5C 1464.67,1770.17 1464.67,1732.83 1464,1695.5C 1461.41,1685.58 1455.75,1677.91 1447,1672.5C 1446.18,1669.12 1446.34,1665.78 1447.5,1662.5C 1470.46,1657.84 1493.46,1653.34 1516.5,1649C 1524.16,1648.5 1531.83,1648.33 1539.5,1648.5C 1539.33,1715.17 1539.5,1781.83 1540,1848.5C 1542.74,1861.7 1549.91,1864.7 1561.5,1857.5C 1561.83,1858 1562.17,1858.5 1562.5,1859C 1559.38,1867.79 1553.72,1874.45 1545.5,1879C 1529.15,1886.94 1512.15,1888.94 1494.5,1885C 1477.23,1878.4 1467.4,1865.9 1465,1847.5C 1441.68,1878.9 1410.52,1891.73 1371.5,1886C 1344.96,1879.8 1327.8,1863.63 1320,1837.5C 1318.35,1831.91 1317.01,1826.24 1316,1820.5C 1315.67,1780.17 1315.33,1739.83 1315,1699.5C 1312.59,1688.1 1306.59,1679.1 1297,1672.5C 1296.83,1670.83 1296.67,1669.17 1296.5,1667.5C 1296.61,1665.36 1297.28,1663.53 1298.5,1662C 1321.37,1657.78 1344.03,1653.28 1366.5,1648.5 Z"/></g>
<g><path style="opacity:1" fill="#fdfefe" d="M 2188.5,1648.5 C 2195.83,1648.5 2203.17,1648.5 2210.5,1648.5C 2210.33,1703.5 2210.5,1758.5 2211,1813.5C 2212.35,1826.24 2217.51,1837.07 2226.5,1846C 2247.32,1856.62 2264.15,1852.12 2277,1832.5C 2280.67,1824.5 2283.33,1816.16 2285,1807.5C 2285.67,1770.83 2285.67,1734.17 2285,1697.5C 2282.48,1686.82 2276.64,1678.48 2267.5,1672.5C 2266.51,1669.23 2266.18,1665.9 2266.5,1662.5C 2288.2,1658.55 2309.87,1654.38 2331.5,1650C 2341.12,1648.71 2350.79,1648.21 2360.5,1648.5C 2360.33,1716.5 2360.5,1784.5 2361,1852.5C 2363.28,1859.56 2368.11,1862.39 2375.5,1861C 2378.25,1859.88 2380.75,1858.38 2383,1856.5C 2382.68,1860.46 2381.35,1864.13 2379,1867.5C 2365.76,1881.87 2349.26,1888.53 2329.5,1887.5C 2304.42,1885.76 2289.76,1872.43 2285.5,1847.5C 2265.98,1874.59 2239.31,1887.93 2205.5,1887.5C 2170.22,1885.05 2148.05,1866.72 2139,1832.5C 2137.68,1826.22 2136.68,1819.88 2136,1813.5C 2135.67,1774.83 2135.33,1736.17 2135,1697.5C 2132.16,1686.79 2126.16,1678.45 2117,1672.5C 2116.18,1669.12 2116.34,1665.78 2117.5,1662.5C 2141.29,1657.82 2164.96,1653.16 2188.5,1648.5 Z"/></g>
<g><path style="opacity:1" fill="#fefefe" d="M 2645.5,1873.5 C 2645.5,1876.5 2645.5,1879.5 2645.5,1882.5C 2602.5,1882.5 2559.5,1882.5 2516.5,1882.5C 2515.58,1877.18 2517.08,1872.84 2521,1869.5C 2525.18,1863.46 2526.51,1856.79 2525,1849.5C 2518.36,1835.55 2510.69,1822.21 2502,1809.5C 2490.85,1822.47 2480.19,1835.8 2470,1849.5C 2467.34,1857.67 2468.17,1865.34 2472.5,1872.5C 2472.5,1875.83 2472.5,1879.17 2472.5,1882.5C 2447.17,1882.5 2421.83,1882.5 2396.5,1882.5C 2396.34,1879.48 2396.5,1876.48 2397,1873.5C 2404.52,1869.66 2412.02,1865.83 2419.5,1862C 2423.93,1859.4 2427.93,1856.24 2431.5,1852.5C 2450.75,1830.09 2469.41,1807.26 2487.5,1784C 2467.13,1749.43 2446.63,1714.93 2426,1680.5C 2417.7,1670.71 2407.53,1663.38 2395.5,1658.5C 2394.51,1655.23 2394.18,1651.9 2394.5,1648.5C 2437.5,1648.5 2480.5,1648.5 2523.5,1648.5C 2523.67,1651.85 2523.5,1655.18 2523,1658.5C 2512.83,1668.54 2511.83,1679.54 2520,1691.5C 2525.97,1701.63 2532.14,1711.63 2538.5,1721.5C 2549.19,1708.64 2559.69,1695.64 2570,1682.5C 2573.89,1674.37 2573.22,1666.7 2568,1659.5C 2567.5,1655.85 2567.33,1652.18 2567.5,1648.5C 2592.83,1648.5 2618.17,1648.5 2643.5,1648.5C 2643.5,1651.83 2643.5,1655.17 2643.5,1658.5C 2630.83,1662.67 2619.5,1669.17 2609.5,1678C 2589.87,1700.28 2571.2,1723.28 2553.5,1747C 2573.62,1782.06 2594.12,1816.9 2615,1851.5C 2623.91,1860.69 2634.08,1868.03 2645.5,1873.5 Z"/></g>
<g><path style="opacity:1" fill="#0f5e73" d="M 1147.5,1672.5 C 1164.74,1669.74 1177.91,1675.74 1187,1690.5C 1198.07,1711.51 1202.07,1733.85 1199,1757.5C 1197.05,1773.68 1191.39,1788.35 1182,1801.5C 1170.58,1813.09 1157.41,1815.59 1142.5,1809C 1132.73,1802.55 1125.9,1793.72 1122,1782.5C 1112.48,1755.96 1112.14,1729.3 1121,1702.5C 1125.94,1688.86 1134.78,1678.86 1147.5,1672.5 Z"/></g>
<g><path style="opacity:1" fill="#0f5e73" d="M 1948.5,1672.5 C 1964.49,1670.24 1977.32,1675.58 1987,1688.5C 1997.62,1705.61 2003.62,1724.28 2005,1744.5C 2007.74,1772.55 2004.74,1799.88 1996,1826.5C 1990.99,1841.17 1981.49,1851.67 1967.5,1858C 1950.14,1861.66 1936.98,1855.82 1928,1840.5C 1917.98,1821.43 1912.65,1801.1 1912,1779.5C 1910.08,1753.22 1913.08,1727.55 1921,1702.5C 1926.32,1688.69 1935.49,1678.69 1948.5,1672.5 Z"/></g>
<g><path style="opacity:1" fill="#105e73" d="M 1720.5,1741.5 C 1721.66,1760.66 1721.83,1780 1721,1799.5C 1719.22,1818.58 1709.72,1832.08 1692.5,1840C 1676.24,1841.94 1665.4,1835.11 1660,1819.5C 1653.73,1798.88 1658.9,1781.71 1675.5,1768C 1690.23,1758.64 1705.23,1749.8 1720.5,1741.5 Z"/></g>
<g><path style="opacity:1" fill="#7791a1" d="M 620.5,1873.5 C 620.5,1876.5 620.5,1879.5 620.5,1882.5C 657.833,1882.5 695.167,1882.5 732.5,1882.5C 695.004,1883.5 657.337,1883.83 619.5,1883.5C 619.187,1879.96 619.521,1876.62 620.5,1873.5 Z"/></g>
<g><path style="opacity:1" fill="#7a93a2" d="M 865.5,1873.5 C 866.479,1876.62 866.813,1879.96 866.5,1883.5C 828.663,1883.83 790.996,1883.5 753.5,1882.5C 790.833,1882.5 828.167,1882.5 865.5,1882.5C 865.5,1879.5 865.5,1876.5 865.5,1873.5 Z"/></g>
<g><path style="opacity:1" fill="#7a93a3" d="M 2472.5,1872.5 C 2473.48,1875.96 2473.81,1879.63 2473.5,1883.5C 2447.66,1883.83 2421.99,1883.5 2396.5,1882.5C 2421.83,1882.5 2447.17,1882.5 2472.5,1882.5C 2472.5,1879.17 2472.5,1875.83 2472.5,1872.5 Z"/></g>
<g><path style="opacity:1" fill="#7891a1" d="M 2645.5,1873.5 C 2646.48,1876.62 2646.81,1879.96 2646.5,1883.5C 2603,1883.83 2559.66,1883.5 2516.5,1882.5C 2559.5,1882.5 2602.5,1882.5 2645.5,1882.5C 2645.5,1879.5 2645.5,1876.5 2645.5,1873.5 Z"/></g>
<g><path style="opacity:1" fill="#efb64b" d="M 2031.5,2089.5 C 2037.47,2088.3 2041.3,2090.63 2043,2096.5C 2044.42,2109.44 2044.92,2122.44 2044.5,2135.5C 2048.58,2133.94 2052.58,2132.11 2056.5,2130C 2063.85,2128.77 2070.85,2129.77 2077.5,2133C 2083.32,2139.45 2084.16,2146.61 2080,2154.5C 2070.66,2174.55 2057.49,2191.55 2040.5,2205.5C 2037.37,2205.35 2034.87,2204.02 2033,2201.5C 2032.67,2187.17 2032.33,2172.83 2032,2158.5C 2029.23,2156.45 2028.9,2154.12 2031,2151.5C 2031.94,2132.79 2031.44,2114.12 2029.5,2095.5C 2029.36,2093.16 2030.03,2091.16 2031.5,2089.5 Z"/></g>
<g><path style="opacity:1" fill="#efb54b" d="M 1055.5,2091.5 C 1060.64,2090.43 1064.47,2092.09 1067,2096.5C 1068.06,2113.48 1068.72,2130.48 1069,2147.5C 1069.58,2152.51 1070.25,2157.51 1071,2162.5C 1074.85,2154.96 1080.02,2148.46 1086.5,2143C 1092.12,2139.19 1096.95,2140.02 1101,2145.5C 1103.68,2152.24 1105.35,2159.24 1106,2166.5C 1106.27,2178.83 1106.1,2191.17 1105.5,2203.5C 1102.12,2203.54 1098.79,2203.21 1095.5,2202.5C 1096.38,2190.18 1096.55,2177.84 1096,2165.5C 1095.18,2157.94 1091.51,2155.61 1085,2158.5C 1079.14,2166.22 1075.48,2174.88 1074,2184.5C 1073.88,2191.25 1073.21,2197.91 1072,2204.5C 1069.6,2205.6 1067.1,2205.77 1064.5,2205C 1062.67,2204.5 1061.5,2203.33 1061,2201.5C 1058.5,2167.56 1056.34,2133.56 1054.5,2099.5C 1054.55,2096.75 1054.88,2094.08 1055.5,2091.5 Z"/></g>
<g><path style="opacity:1" fill="#f0b64a" d="M 1327.5,2091.5 C 1331.64,2090.7 1334.81,2092.04 1337,2095.5C 1338.19,2111.15 1339.36,2126.82 1340.5,2142.5C 1349.66,2139.06 1358.83,2135.73 1368,2132.5C 1372.35,2132.25 1374.85,2134.25 1375.5,2138.5C 1375.12,2140.38 1374.12,2141.88 1372.5,2143C 1362.39,2146.56 1352.39,2150.39 1342.5,2154.5C 1341.5,2168.56 1342.17,2182.56 1344.5,2196.5C 1346.02,2204.69 1343.02,2207.19 1335.5,2204C 1333.68,2202.2 1332.52,2200.03 1332,2197.5C 1330.97,2185.51 1330.13,2173.51 1329.5,2161.5C 1325.31,2163.07 1320.97,2163.57 1316.5,2163C 1312.33,2160.65 1311.66,2157.65 1314.5,2154C 1318.38,2151.89 1322.38,2150.06 1326.5,2148.5C 1327.6,2132.48 1327.27,2116.48 1325.5,2100.5C 1325.27,2097.19 1325.94,2094.19 1327.5,2091.5 Z"/></g>
<g><path style="opacity:1" fill="#f0b64b" d="M 1465.5,2091.5 C 1470.44,2090.35 1473.94,2092.02 1476,2096.5C 1476.5,2111.89 1477.67,2127.22 1479.5,2142.5C 1488.43,2138.86 1497.43,2135.53 1506.5,2132.5C 1512.8,2132.96 1514.8,2136.13 1512.5,2142C 1501.45,2146.12 1490.62,2150.62 1480,2155.5C 1479.28,2169.82 1480.45,2183.98 1483.5,2198C 1482.72,2206.14 1479.05,2207.64 1472.5,2202.5C 1469.94,2188.98 1468.27,2175.31 1467.5,2161.5C 1463.31,2163.07 1458.97,2163.57 1454.5,2163C 1451.02,2160.29 1450.69,2157.29 1453.5,2154C 1456.91,2151.69 1460.58,2149.86 1464.5,2148.5C 1465.04,2129.44 1465.38,2110.44 1465.5,2091.5 Z"/></g>
<g><path style="opacity:1" fill="#f0b64b" d="M 2310.5,2091.5 C 2314.95,2090.62 2318.45,2091.95 2321,2095.5C 2322.3,2117.86 2323.8,2140.19 2325.5,2162.5C 2329.53,2153.3 2335.87,2146.13 2344.5,2141C 2347.78,2140.26 2350.78,2140.92 2353.5,2143C 2359.23,2152.7 2361.56,2163.2 2360.5,2174.5C 2360.19,2184.17 2359.86,2193.84 2359.5,2203.5C 2356.55,2203.78 2353.72,2203.44 2351,2202.5C 2351.27,2190.84 2351.27,2179.17 2351,2167.5C 2350.93,2162.02 2348.43,2158.35 2343.5,2156.5C 2340.93,2157.56 2338.77,2159.23 2337,2161.5C 2329.6,2174.51 2326.26,2188.51 2327,2203.5C 2323.06,2206.37 2319.39,2206.03 2316,2202.5C 2312.94,2168.07 2310.44,2133.57 2308.5,2099C 2308.3,2096.18 2308.97,2093.68 2310.5,2091.5 Z"/></g>
<g><path style="opacity:1" fill="#f0b64b" d="M 426.5,2103.5 C 432.482,2102.99 435.982,2105.66 437,2111.5C 437.167,2137.84 437.667,2164.17 438.5,2190.5C 451.126,2185.24 463.793,2180.07 476.5,2175C 478.833,2174.33 481.167,2174.33 483.5,2175C 485.18,2175.35 486.18,2176.35 486.5,2178C 485.917,2180.5 484.584,2182.5 482.5,2184C 465.685,2190.6 449.185,2197.77 433,2205.5C 428.402,2204.9 425.735,2202.24 425,2197.5C 425.022,2170.16 424.855,2142.83 424.5,2115.5C 424.667,2112.17 424.833,2108.83 425,2105.5C 425.717,2104.96 426.217,2104.29 426.5,2103.5 Z"/></g>
<g><path style="opacity:1" fill="#efb54b" d="M 2095.5,2106.5 C 2101.9,2106.4 2104.56,2109.57 2103.5,2116C 2102.95,2123.2 2102.12,2130.37 2101,2137.5C 2099.95,2144.64 2097.28,2145.31 2093,2139.5C 2091.31,2129.53 2091.31,2119.53 2093,2109.5C 2093.7,2108.31 2094.53,2107.31 2095.5,2106.5 Z"/></g>
<g><path style="opacity:1" fill="#f0b64b" d="M 1225.5,2118.5 C 1228.6,2118.15 1231.44,2118.82 1234,2120.5C 1236.13,2124.23 1237.47,2128.23 1238,2132.5C 1240.12,2156.71 1240.95,2180.87 1240.5,2205C 1236.01,2206.38 1232.51,2205.21 1230,2201.5C 1228.11,2188.85 1226.45,2176.18 1225,2163.5C 1221,2170.83 1217,2178.17 1213,2185.5C 1209.5,2192.34 1204.17,2197 1197,2199.5C 1194.1,2199.09 1191.43,2198.09 1189,2196.5C 1188.32,2178.97 1190.99,2161.97 1197,2145.5C 1202.83,2132.5 1212.33,2123.5 1225.5,2118.5 Z"/></g>
<g><path style="opacity:1" fill="#f0b64b" d="M 1800.5,2118.5 C 1806.86,2117.59 1810.69,2120.26 1812,2126.5C 1814.22,2150.97 1816.05,2175.47 1817.5,2200C 1817.65,2202.03 1816.98,2203.7 1815.5,2205C 1811.01,2206.38 1807.51,2205.21 1805,2201.5C 1803.39,2188.8 1801.73,2176.14 1800,2163.5C 1796.41,2169.68 1793.08,2176.01 1790,2182.5C 1786.77,2187.79 1782.94,2192.62 1778.5,2197C 1774.29,2200.14 1769.95,2200.31 1765.5,2197.5C 1762.11,2174.41 1766.61,2153.08 1779,2133.5C 1784.99,2126.66 1792.15,2121.66 1800.5,2118.5 Z"/></g>
<g><path style="opacity:1" fill="#f0b64b" d="M 2407.5,2118.5 C 2415.19,2118.01 2419.35,2121.68 2420,2129.5C 2421.54,2153 2423.04,2176.5 2424.5,2200C 2424.65,2202.03 2423.98,2203.7 2422.5,2205C 2417.57,2206.64 2414.07,2205.14 2412,2200.5C 2410.47,2188.07 2408.81,2175.74 2407,2163.5C 2401.62,2176.45 2394.12,2187.95 2384.5,2198C 2379.93,2200.37 2375.76,2199.87 2372,2196.5C 2370.66,2178.2 2373.33,2160.53 2380,2143.5C 2385.89,2131.44 2395.06,2123.1 2407.5,2118.5 Z"/></g>
<g><path style="opacity:1" fill="#f0b64b" d="M 968.5,2124.5 C 975.12,2124.18 977.954,2127.18 977,2133.5C 967.629,2141.2 959.296,2149.87 952,2159.5C 950.059,2163.05 948.393,2166.71 947,2170.5C 947.175,2181.49 947.175,2192.49 947,2203.5C 941.582,2206.92 937.582,2205.58 935,2199.5C 933.39,2176.8 931.724,2154.13 930,2131.5C 934.692,2129.65 938.692,2130.65 942,2134.5C 942.171,2139.53 942.671,2144.53 943.5,2149.5C 950.854,2140.15 959.188,2131.81 968.5,2124.5 Z"/></g>
<g><path style="opacity:1" fill="#efb64b" d="M 2477.5,2124.5 C 2484.12,2124.18 2486.95,2127.18 2486,2133.5C 2476.63,2141.2 2468.3,2149.87 2461,2159.5C 2459.06,2163.05 2457.39,2166.71 2456,2170.5C 2456.11,2181.5 2456.11,2192.5 2456,2203.5C 2450.58,2206.92 2446.58,2205.58 2444,2199.5C 2442.11,2176.82 2440.44,2154.15 2439,2131.5C 2443.69,2129.65 2447.69,2130.65 2451,2134.5C 2451.17,2139.53 2451.67,2144.53 2452.5,2149.5C 2459.85,2140.15 2468.19,2131.81 2477.5,2124.5 Z"/></g>
<g><path style="opacity:1" fill="#f0b64b" d="M 1294.5,2124.5 C 1301.21,2124.05 1304.38,2127.05 1304,2133.5C 1293.62,2140.88 1284.96,2149.88 1278,2160.5C 1276.39,2163.38 1275.06,2166.38 1274,2169.5C 1273.7,2180.84 1273.7,2192.18 1274,2203.5C 1269.07,2206.67 1265.07,2205.67 1262,2200.5C 1260.17,2177.48 1258.5,2154.48 1257,2131.5C 1260.45,2130.18 1263.79,2130.52 1267,2132.5C 1268.56,2138.06 1269.73,2143.73 1270.5,2149.5C 1277.85,2140.49 1285.85,2132.15 1294.5,2124.5 Z"/></g>
<g><path style="opacity:1" fill="#f0b64b" d="M 1937.5,2124.5 C 1943.73,2123.91 1946.89,2126.58 1947,2132.5C 1936.98,2140.53 1928.31,2149.86 1921,2160.5C 1918.78,2164.27 1917.11,2168.27 1916,2172.5C 1916.33,2182.83 1916.67,2193.17 1917,2203.5C 1912.02,2206.67 1908.02,2205.67 1905,2200.5C 1902.99,2177.39 1901.16,2154.39 1899.5,2131.5C 1903.57,2129.9 1907.24,2130.57 1910.5,2133.5C 1911,2138.96 1911.84,2144.29 1913,2149.5C 1920.7,2140.64 1928.87,2132.3 1937.5,2124.5 Z"/></g>
<g><path style="opacity:1" fill="#efb64b" d="M 1689.5,2130.5 C 1694.98,2130.15 1700.31,2130.82 1705.5,2132.5C 1707.34,2134.53 1707.84,2136.86 1707,2139.5C 1695.83,2157.17 1684.67,2174.83 1673.5,2192.5C 1674.5,2192.83 1675.5,2193.17 1676.5,2193.5C 1699.5,2190.17 1722.5,2186.83 1745.5,2183.5C 1753.96,2184.48 1755.63,2188.32 1750.5,2195C 1739.48,2195.38 1728.48,2196.05 1717.5,2197C 1699.48,2199.73 1681.48,2202.56 1663.5,2205.5C 1657.16,2206.33 1654.33,2203.66 1655,2197.5C 1667.21,2179.59 1679.04,2161.42 1690.5,2143C 1677.5,2144 1664.5,2145 1651.5,2146C 1645.4,2143.01 1645.07,2139.67 1650.5,2136C 1663.74,2134.82 1676.74,2132.98 1689.5,2130.5 Z"/></g>
<g><path style="opacity:1" fill="#f0b64a" d="M 2528.5,2132.5 C 2533.64,2131.43 2537.47,2133.09 2540,2137.5C 2540.38,2145.86 2541.04,2154.19 2542,2162.5C 2544.61,2152.52 2548.11,2142.85 2552.5,2133.5C 2557.17,2131.56 2561,2132.56 2564,2136.5C 2568.61,2157.05 2572.78,2177.72 2576.5,2198.5C 2575.78,2202.52 2573.45,2204.02 2569.5,2203C 2566.94,2202.31 2565.11,2200.81 2564,2198.5C 2561.58,2185.75 2558.92,2173.09 2556,2160.5C 2551.72,2173.6 2548.06,2186.93 2545,2200.5C 2536.27,2203.8 2531.61,2200.8 2531,2191.5C 2530.26,2180.11 2529.09,2168.78 2527.5,2157.5C 2521.14,2172.26 2516.64,2187.59 2514,2203.5C 2507.57,2207.25 2503.24,2205.58 2501,2198.5C 2499.33,2178.15 2498,2157.82 2497,2137.5C 2501.1,2135 2505.1,2135 2509,2137.5C 2510.08,2145.12 2511.08,2152.79 2512,2160.5C 2517.26,2150.97 2522.76,2141.64 2528.5,2132.5 Z"/></g>
<g><path style="opacity:1" fill="#f0b64b" d="M 902.5,2134.5 C 906.639,2133.7 909.805,2135.04 912,2138.5C 913.768,2162.14 914.435,2185.81 914,2209.5C 910.667,2212.17 907.333,2212.17 904,2209.5C 903.408,2203.59 902.075,2197.92 900,2192.5C 898.254,2196.33 896.254,2199.99 894,2203.5C 887.651,2207.56 881.651,2206.89 876,2201.5C 873.196,2197.56 871.196,2193.22 870,2188.5C 869.333,2172.83 869.333,2157.17 870,2141.5C 874.64,2135.31 879.64,2134.98 885,2140.5C 885.667,2142.83 885.667,2145.17 885,2147.5C 880.286,2160.86 879.286,2174.53 882,2188.5C 882.917,2193.35 885.417,2194.52 889.5,2192C 894.377,2186.75 897.544,2180.58 899,2173.5C 900.758,2160.5 901.925,2147.5 902.5,2134.5 Z"/></g>
<g><path style="opacity:1" fill="#efb64b" d="M 641.5,2135.5 C 650.618,2136.9 656.951,2141.9 660.5,2150.5C 659.946,2152.61 659.112,2154.61 658,2156.5C 650.353,2162.65 642.853,2168.98 635.5,2175.5C 633.431,2181.4 633.098,2187.4 634.5,2193.5C 642.273,2187.9 649.606,2181.73 656.5,2175C 661.877,2169.29 666.877,2163.29 671.5,2157C 674.665,2154.87 677.665,2155.04 680.5,2157.5C 683.173,2164.91 681.173,2170.74 674.5,2175C 664.869,2182.96 655.536,2191.3 646.5,2200C 640.539,2205.1 633.872,2206.44 626.5,2204C 624.3,2201.77 622.467,2199.27 621,2196.5C 620.258,2190.8 620.425,2185.13 621.5,2179.5C 619.988,2177.14 618.654,2174.64 617.5,2172C 619.357,2169.48 621.691,2167.48 624.5,2166C 626.744,2158.27 629.577,2150.77 633,2143.5C 635.157,2140.02 637.99,2137.36 641.5,2135.5 Z"/></g>
<g><path style="opacity:1" fill="#efb64b" d="M 1139.5,2135.5 C 1149.05,2136.38 1155.38,2141.38 1158.5,2150.5C 1158.32,2153.19 1157.32,2155.52 1155.5,2157.5C 1148.48,2163.69 1141.31,2169.69 1134,2175.5C 1132.37,2181.38 1131.54,2187.38 1131.5,2193.5C 1133.78,2193.39 1135.78,2192.56 1137.5,2191C 1149.62,2180.55 1160.62,2169.22 1170.5,2157C 1174.06,2154.85 1177.23,2155.35 1180,2158.5C 1180.67,2161.5 1180.67,2164.5 1180,2167.5C 1168.89,2177.94 1157.72,2188.44 1146.5,2199C 1142.99,2201.25 1139.33,2203.25 1135.5,2205C 1127.84,2206.75 1122.68,2203.92 1120,2196.5C 1119.21,2190.45 1119.38,2184.45 1120.5,2178.5C 1118.51,2176.69 1117.18,2174.52 1116.5,2172C 1116.83,2171.17 1117.17,2170.33 1117.5,2169.5C 1119.61,2168.97 1121.45,2167.97 1123,2166.5C 1125.27,2159.01 1127.94,2151.68 1131,2144.5C 1133.36,2140.97 1136.2,2137.97 1139.5,2135.5 Z"/></g>
<g><path style="opacity:1" fill="#2b6271" d="M 1220.5,2133.5 C 1221.35,2150.27 1215.68,2164.6 1203.5,2176.5C 1202.68,2159.62 1208.35,2145.29 1220.5,2133.5 Z"/></g>
<g><path style="opacity:1" fill="#296272" d="M 1795.5,2133.5 C 1796.26,2150.04 1790.76,2164.38 1779,2176.5C 1778.13,2159.61 1783.63,2145.27 1795.5,2133.5 Z"/></g>
<g><path style="opacity:1" fill="#efb64b" d="M 1860.5,2135.5 C 1878.7,2134.91 1885.2,2143.58 1880,2161.5C 1884.6,2187.35 1887.6,2213.35 1889,2239.5C 1887.59,2252.2 1880.76,2260.04 1868.5,2263C 1859.83,2263.67 1851.17,2263.67 1842.5,2263C 1837.88,2261.92 1836.38,2259.09 1838,2254.5C 1838.5,2254 1839,2253.5 1839.5,2253C 1849.89,2255.31 1860.22,2254.64 1870.5,2251C 1872.38,2248.75 1873.88,2246.25 1875,2243.5C 1875.79,2221.22 1873.63,2199.22 1868.5,2177.5C 1865.17,2183.48 1861.34,2189.14 1857,2194.5C 1851.37,2201.4 1844.21,2203.9 1835.5,2202C 1832.94,2201.31 1831.11,2199.81 1830,2197.5C 1828.73,2187.98 1830.39,2178.98 1835,2170.5C 1841.11,2156.88 1849.61,2145.21 1860.5,2135.5 Z"/></g>
<g><path style="opacity:1" fill="#efb64b" d="M 1978.5,2135.5 C 1982.13,2135.16 1985.46,2135.99 1988.5,2138C 1992.94,2141.25 1995.94,2145.42 1997.5,2150.5C 1997.15,2153.53 1995.99,2156.19 1994,2158.5C 1987,2164.17 1980,2169.83 1973,2175.5C 1971.3,2181.44 1971.14,2187.44 1972.5,2193.5C 1986.37,2182.8 1998.7,2170.63 2009.5,2157C 2013.15,2154.67 2016.32,2155.17 2019,2158.5C 2019.67,2161.5 2019.67,2164.5 2019,2167.5C 2007.55,2178.28 1996.05,2189.11 1984.5,2200C 1981.14,2201.68 1977.8,2203.35 1974.5,2205C 1966.84,2206.75 1961.68,2203.92 1959,2196.5C 1958.21,2190.45 1958.38,2184.45 1959.5,2178.5C 1957.51,2176.69 1956.18,2174.52 1955.5,2172C 1955.83,2171.17 1956.17,2170.33 1956.5,2169.5C 1958.61,2168.97 1960.45,2167.97 1962,2166.5C 1964.35,2157.77 1967.69,2149.43 1972,2141.5C 1974.06,2139.27 1976.23,2137.27 1978.5,2135.5 Z"/></g>
<g><path style="opacity:1" fill="#256172" d="M 2402.5,2134.5 C 2403.4,2150.8 2397.9,2164.8 2386,2176.5C 2384.96,2159.75 2390.46,2145.75 2402.5,2134.5 Z"/></g>
<g><path style="opacity:1" fill="#f0b64b" d="M 789.5,2137.5 C 793.909,2136.62 797.409,2137.95 800,2141.5C 801.509,2179.82 801.842,2218.15 801,2256.5C 797.435,2258.05 794.101,2257.72 791,2255.5C 790,2253.17 789,2250.83 788,2248.5C 787.667,2233.5 787.333,2218.5 787,2203.5C 777.615,2191.78 768.615,2179.78 760,2167.5C 757.791,2164.86 757.291,2162.03 758.5,2159C 763.041,2157.89 767.041,2158.89 770.5,2162C 776.456,2170.08 782.289,2178.25 788,2186.5C 788.743,2172.49 788.576,2158.49 787.5,2144.5C 787.319,2141.84 787.985,2139.5 789.5,2137.5 Z"/></g>
<g><path style="opacity:1" fill="#efb64b" d="M 586.5,2138.5 C 590.846,2138.33 595.179,2138.5 599.5,2139C 602.119,2140.86 602.952,2143.36 602,2146.5C 586.842,2147.81 575.009,2154.81 566.5,2167.5C 573.632,2168.31 580.632,2167.48 587.5,2165C 593.253,2164.15 598.92,2164.48 604.5,2166C 606.357,2167.18 607.357,2168.85 607.5,2171C 606.205,2175.63 604.038,2179.79 601,2183.5C 595.283,2190.22 589.95,2197.22 585,2204.5C 578.519,2207.24 575.185,2205.24 575,2198.5C 580.745,2191.92 585.912,2184.92 590.5,2177.5C 584.126,2177.2 577.793,2178.03 571.5,2180C 563.799,2181.22 556.966,2179.39 551,2174.5C 550.004,2170.79 550.67,2167.46 553,2164.5C 562.66,2153.65 573.826,2144.98 586.5,2138.5 Z"/></g>
<g><path style="opacity:1" fill="#efb64b" d="M 2150.5,2138.5 C 2155.18,2138.33 2159.85,2138.5 2164.5,2139C 2166.44,2141.15 2166.94,2143.65 2166,2146.5C 2159.05,2146.62 2152.55,2148.45 2146.5,2152C 2140.5,2156.67 2135.17,2162 2130.5,2168C 2140.53,2167.39 2150.53,2166.22 2160.5,2164.5C 2169.63,2164.1 2172.79,2168.1 2170,2176.5C 2163.58,2185.68 2156.91,2194.68 2150,2203.5C 2147.03,2205.99 2143.86,2206.16 2140.5,2204C 2139.57,2202.81 2138.9,2201.47 2138.5,2200C 2144.2,2192.78 2149.53,2185.28 2154.5,2177.5C 2148.13,2177.2 2141.79,2178.03 2135.5,2180C 2128.66,2180.94 2122.33,2179.61 2116.5,2176C 2113.87,2172.11 2114.04,2168.28 2117,2164.5C 2126.66,2153.65 2137.83,2144.98 2150.5,2138.5 Z"/></g>
<g><path style="opacity:1" fill="#195f72" d="M 2061.5,2139.5 C 2063.79,2139.24 2065.96,2139.58 2068,2140.5C 2068.67,2143.83 2068.67,2147.17 2068,2150.5C 2062.69,2163.8 2055.35,2175.8 2046,2186.5C 2045.33,2175.17 2045.33,2163.83 2046,2152.5C 2050.33,2147.1 2055.49,2142.76 2061.5,2139.5 Z"/></g>
<g><path style="opacity:1" fill="#f0b64b" d="M 503.5,2140.5 C 505.857,2140.34 508.19,2140.5 510.5,2141C 512.355,2142.86 514.188,2144.69 516,2146.5C 524.146,2144.1 530.479,2146.44 535,2153.5C 544.341,2175.48 538.841,2192.64 518.5,2205C 507.22,2207.05 500.053,2202.55 497,2191.5C 497.347,2175.06 499.014,2158.73 502,2142.5C 502.717,2141.96 503.217,2141.29 503.5,2140.5 Z"/></g>
<g><path style="opacity:1" fill="#f0b64b" d="M 822.5,2140.5 C 824.857,2140.34 827.19,2140.5 829.5,2141C 831.24,2143.04 833.074,2144.87 835,2146.5C 842.581,2143.79 848.581,2145.79 853,2152.5C 863.391,2174.99 857.891,2192.49 836.5,2205C 825.265,2207.13 818.431,2202.63 816,2191.5C 815.436,2188.85 814.936,2186.18 814.5,2183.5C 816.38,2170.84 818.213,2158.17 820,2145.5C 820.366,2143.55 821.199,2141.88 822.5,2140.5 Z"/></g>
<g><path style="opacity:1" fill="#efb64b" d="M 1531.5,2140.5 C 1533.86,2140.34 1536.19,2140.5 1538.5,2141C 1540.36,2142.86 1542.19,2144.69 1544,2146.5C 1552.15,2144.1 1558.48,2146.44 1563,2153.5C 1572.34,2175.48 1566.84,2192.64 1546.5,2205C 1535.22,2207.05 1528.05,2202.55 1525,2191.5C 1524.82,2176.72 1526.16,2162.05 1529,2147.5C 1529.15,2144.85 1529.99,2142.52 1531.5,2140.5 Z"/></g>
<g><path style="opacity:1" fill="#f0b64b" d="M 2271.5,2140.5 C 2276.16,2139.8 2280.33,2140.8 2284,2143.5C 2284.2,2150.22 2284.7,2156.88 2285.5,2163.5C 2283.73,2167.33 2280.73,2168.5 2276.5,2167C 2274.85,2161.97 2273.51,2156.8 2272.5,2151.5C 2263.56,2164.89 2261.23,2179.22 2265.5,2194.5C 2269.85,2193.68 2273.35,2191.35 2276,2187.5C 2279.62,2182.42 2283.12,2177.25 2286.5,2172C 2289.5,2171.33 2292.5,2171.33 2295.5,2172C 2296.8,2172.8 2297.47,2173.97 2297.5,2175.5C 2292.99,2188.51 2284.66,2198.35 2272.5,2205C 2258.41,2206.92 2250.91,2200.75 2250,2186.5C 2249.89,2167.71 2257.06,2152.38 2271.5,2140.5 Z"/></g>
<g><path style="opacity:1" fill="#346471" d="M 644.5,2146.5 C 648.138,2145.74 649.638,2147.07 649,2150.5C 638.504,2159.17 637.004,2157.84 644.5,2146.5 Z"/></g>
<g><path style="opacity:1" fill="#2e6371" d="M 1143.5,2146.5 C 1145.95,2146.08 1147.28,2147.08 1147.5,2149.5C 1136.11,2161.05 1134.78,2160.05 1143.5,2146.5 Z"/></g>
<g><path style="opacity:1" fill="#3a6671" d="M 1982.5,2146.5 C 1984.96,2146.23 1986.62,2147.23 1987.5,2149.5C 1984.45,2152.71 1980.95,2155.38 1977,2157.5C 1978.25,2153.67 1980.08,2150.01 1982.5,2146.5 Z"/></g>
<g><path style="opacity:1" fill="#216072" d="M 1860.5,2148.5 C 1862.39,2148.3 1863.89,2148.96 1865,2150.5C 1865.89,2155.07 1865.22,2159.41 1863,2163.5C 1858.23,2174.27 1851.23,2183.27 1842,2190.5C 1841.06,2189.74 1840.56,2188.74 1840.5,2187.5C 1844.81,2173.21 1851.48,2160.21 1860.5,2148.5 Z"/></g>
<g><path style="opacity:1" fill="#1c5f72" d="M 517.5,2156.5 C 522.963,2155.78 526.463,2158.12 528,2163.5C 529.883,2176.73 525.05,2186.73 513.5,2193.5C 510.734,2191.64 509.234,2188.98 509,2185.5C 507.12,2174.37 509.953,2164.7 517.5,2156.5 Z"/></g>
<g><path style="opacity:1" fill="#1d6072" d="M 836.5,2156.5 C 841.963,2155.78 845.463,2158.12 847,2163.5C 848.865,2176.77 844.032,2186.77 832.5,2193.5C 829.825,2192.52 828.325,2190.52 828,2187.5C 825.716,2175.63 828.549,2165.29 836.5,2156.5 Z"/></g>
<g><path style="opacity:1" fill="#1b5f72" d="M 1545.5,2156.5 C 1549.59,2155.7 1552.76,2157.04 1555,2160.5C 1559.25,2175.08 1554.75,2186.08 1541.5,2193.5C 1539.91,2192.99 1538.75,2191.99 1538,2190.5C 1534.99,2177.84 1537.49,2166.5 1545.5,2156.5 Z"/></g>
</svg>
