<svg xmlns="http://www.w3.org/2000/svg" xmlns:xlink="http://www.w3.org/1999/xlink" width="485" zoomAndPan="magnify" viewBox="0 0 363.75 93.749996" height="125" preserveAspectRatio="xMidYMid meet" version="1.0"><defs><g/><clipPath id="407a62edbc"><path d="M 39.800781 17.769531 L 81.6875 17.769531 L 81.6875 70.132812 L 39.800781 70.132812 Z M 39.800781 17.769531 " clip-rule="nonzero"/></clipPath><clipPath id="4826b593ac"><path d="M 66 17.769531 L 81.6875 17.769531 L 81.6875 33 L 66 33 Z M 66 17.769531 " clip-rule="nonzero"/></clipPath></defs><g clip-path="url(#407a62edbc)"><path fill="#f19e22" d="M 75.589844 70.257812 L 40.757812 70.257812 C 40.503906 70.257812 40.285156 70.167969 40.105469 69.988281 C 39.925781 69.808594 39.835938 69.589844 39.835938 69.335938 L 39.835938 18.792969 C 39.835938 18.539062 39.925781 18.324219 40.105469 18.144531 C 40.285156 17.964844 40.503906 17.875 40.757812 17.875 L 67.390625 17.875 C 67.636719 17.871094 67.847656 17.953125 68.027344 18.121094 L 81 30.53125 C 81.1875 30.710938 81.285156 30.933594 81.285156 31.195312 L 81.285156 64.554688 C 81.285156 64.929688 81.246094 65.296875 81.175781 65.664062 C 81.101562 66.03125 80.992188 66.390625 80.851562 66.734375 C 80.707031 67.078125 80.53125 67.410156 80.324219 67.71875 C 80.117188 68.03125 79.882812 68.320312 79.617188 68.582031 C 79.351562 68.847656 79.066406 69.085938 78.753906 69.292969 C 78.445312 69.5 78.117188 69.675781 77.769531 69.820312 C 77.425781 69.964844 77.070312 70.070312 76.703125 70.144531 C 76.335938 70.21875 75.964844 70.257812 75.589844 70.257812 Z M 41.679688 68.414062 L 75.589844 68.414062 C 76.101562 68.414062 76.59375 68.3125 77.066406 68.117188 C 77.535156 67.921875 77.953125 67.640625 78.3125 67.28125 C 78.675781 66.917969 78.953125 66.5 79.148438 66.027344 C 79.34375 65.558594 79.441406 65.066406 79.441406 64.554688 L 79.441406 31.628906 L 67.023438 19.714844 L 41.679688 19.714844 Z M 41.679688 68.414062 " fill-opacity="1" fill-rule="nonzero"/></g><g clip-path="url(#4826b593ac)"><path fill="#f19e22" d="M 80.363281 32.152344 L 71.582031 32.152344 C 71.25 32.152344 70.917969 32.121094 70.589844 32.054688 C 70.261719 31.988281 69.945312 31.894531 69.636719 31.765625 C 69.328125 31.636719 69.035156 31.480469 68.757812 31.296875 C 68.480469 31.109375 68.222656 30.898438 67.988281 30.664062 C 67.75 30.425781 67.539062 30.171875 67.355469 29.894531 C 67.167969 29.617188 67.011719 29.320312 66.886719 29.015625 C 66.757812 28.707031 66.660156 28.386719 66.59375 28.058594 C 66.53125 27.730469 66.496094 27.402344 66.496094 27.066406 L 66.496094 18.777344 C 66.496094 18.589844 66.550781 18.421875 66.652344 18.269531 C 66.753906 18.113281 66.890625 18 67.058594 17.929688 C 67.429688 17.769531 67.761719 17.828125 68.054688 18.105469 L 81 30.53125 C 81.132812 30.660156 81.222656 30.820312 81.261719 31 C 81.300781 31.183594 81.285156 31.363281 81.214844 31.539062 C 81.144531 31.710938 81.03125 31.851562 80.875 31.957031 C 80.722656 32.0625 80.550781 32.117188 80.363281 32.117188 Z M 68.3125 20.949219 L 68.3125 27.066406 C 68.3125 27.5 68.398438 27.914062 68.566406 28.3125 C 68.730469 28.710938 68.96875 29.0625 69.273438 29.367188 C 69.582031 29.671875 69.933594 29.90625 70.335938 30.070312 C 70.734375 30.234375 71.152344 30.3125 71.582031 30.308594 L 78.105469 30.308594 Z M 68.3125 20.949219 " fill-opacity="1" fill-rule="nonzero"/></g><path fill="#f19e22" d="M 51.601562 47.84375 L 51.546875 47.84375 C 51.019531 47.851562 50.570312 47.671875 50.199219 47.296875 C 49.769531 46.8125 49.589844 46.25 49.65625 45.605469 C 49.800781 44.621094 50.292969 43.859375 51.132812 43.328125 C 52.90625 42.226562 54.808594 41.4375 56.84375 40.960938 C 58.09375 38.472656 59.035156 35.871094 59.660156 33.15625 C 59.011719 31.703125 58.457031 30.214844 57.996094 28.6875 C 57.75 28.03125 57.652344 27.351562 57.699219 26.652344 C 57.710938 26.402344 57.765625 26.15625 57.859375 25.921875 C 57.957031 25.6875 58.089844 25.476562 58.257812 25.289062 C 58.421875 25.097656 58.617188 24.941406 58.839844 24.820312 C 59.058594 24.695312 59.296875 24.613281 59.542969 24.570312 C 59.792969 24.53125 60.042969 24.53125 60.292969 24.574219 C 60.542969 24.613281 60.777344 24.699219 60.996094 24.820312 C 61.21875 24.945312 61.414062 25.101562 61.582031 25.289062 C 61.746094 25.480469 61.878906 25.691406 61.972656 25.925781 C 62.339844 26.683594 62.472656 27.484375 62.371094 28.320312 C 62.226562 29.871094 61.976562 31.410156 61.625 32.925781 C 62.640625 35.332031 64.117188 37.40625 66.054688 39.15625 C 67.277344 38.960938 68.503906 38.878906 69.742188 38.914062 C 71.011719 39.128906 71.324219 39.835938 71.40625 40.261719 C 71.484375 40.683594 71.394531 41.066406 71.140625 41.410156 C 70.84375 41.816406 70.449219 42.058594 69.953125 42.140625 C 69.171875 42.246094 68.394531 42.210938 67.628906 42.027344 C 66.859375 41.84375 66.152344 41.527344 65.503906 41.082031 C 63.003906 41.425781 60.527344 41.902344 58.078125 42.507812 C 57.496094 43.585938 56.777344 44.566406 55.921875 45.445312 C 53.914062 47.410156 52.476562 47.84375 51.601562 47.84375 Z M 51.519531 46 C 51.75 46 52.753906 46 54.648438 44.15625 C 54.894531 43.917969 55.125 43.664062 55.332031 43.390625 C 54.230469 43.714844 53.199219 44.1875 52.238281 44.8125 C 51.507812 45.34375 51.433594 45.777344 51.519531 45.992188 Z M 60.914062 35.644531 C 60.441406 37.261719 59.863281 38.839844 59.183594 40.378906 C 60.703125 40.03125 62.25 39.746094 63.679688 39.503906 C 62.59375 38.332031 61.675781 37.039062 60.914062 35.636719 Z M 59.855469 26.433594 C 59.671875 26.550781 59.578125 26.722656 59.570312 26.9375 C 59.558594 27.378906 59.632812 27.800781 59.789062 28.210938 C 59.957031 28.734375 60.140625 29.296875 60.351562 29.886719 C 60.4375 29.304688 60.507812 28.734375 60.554688 28.191406 C 60.625 27.710938 60.5625 27.246094 60.371094 26.800781 C 60.273438 26.570312 60.101562 26.441406 59.855469 26.402344 Z M 59.855469 26.433594 " fill-opacity="1" fill-rule="nonzero"/><path fill="#f19e22" d="M 52.789062 62.582031 C 52.652344 62.617188 52.515625 62.640625 52.375 62.65625 C 52.191406 62.671875 52.007812 62.671875 51.820312 62.65625 C 51.660156 62.671875 51.496094 62.671875 51.332031 62.65625 C 51.207031 62.636719 51.089844 62.585938 50.984375 62.507812 C 50.878906 62.433594 50.808594 62.335938 50.761719 62.214844 C 50.707031 62.050781 50.683594 61.878906 50.6875 61.707031 L 50.6875 56.058594 C 50.679688 55.910156 50.726562 55.777344 50.828125 55.664062 C 50.9375 55.5625 51.0625 55.488281 51.203125 55.441406 C 51.503906 55.339844 51.8125 55.273438 52.125 55.238281 C 52.46875 55.195312 52.8125 55.167969 53.15625 55.167969 C 54.082031 55.105469 54.925781 55.34375 55.683594 55.875 C 56.292969 56.367188 56.585938 57.007812 56.558594 57.792969 C 56.5625 58.15625 56.5 58.507812 56.371094 58.851562 C 56.25 59.164062 56.066406 59.4375 55.820312 59.671875 C 55.550781 59.910156 55.242188 60.085938 54.898438 60.195312 C 54.480469 60.324219 54.050781 60.386719 53.609375 60.378906 L 52.789062 60.378906 Z M 53.414062 58.742188 C 53.699219 58.757812 53.953125 58.679688 54.179688 58.511719 C 54.367188 58.3125 54.464844 58.074219 54.464844 57.800781 C 54.464844 57.527344 54.367188 57.289062 54.179688 57.09375 C 53.9375 56.90625 53.664062 56.828125 53.359375 56.851562 L 52.789062 56.851562 L 52.789062 58.695312 Z M 53.414062 58.742188 " fill-opacity="1" fill-rule="nonzero"/><path fill="#f19e22" d="M 60.410156 62.820312 L 59.394531 62.820312 L 58.832031 62.730469 C 58.652344 62.699219 58.476562 62.648438 58.308594 62.582031 C 58.113281 62.523438 57.957031 62.414062 57.835938 62.253906 C 57.714844 62.089844 57.65625 61.910156 57.652344 61.707031 L 57.652344 56.058594 C 57.644531 55.910156 57.691406 55.777344 57.792969 55.664062 C 57.898438 55.558594 58.027344 55.484375 58.167969 55.441406 C 58.523438 55.328125 58.886719 55.253906 59.257812 55.222656 C 59.644531 55.222656 59.984375 55.167969 60.289062 55.167969 C 60.863281 55.164062 61.429688 55.238281 61.984375 55.398438 C 62.464844 55.539062 62.898438 55.769531 63.28125 56.097656 C 63.660156 56.429688 63.941406 56.828125 64.128906 57.292969 C 64.347656 57.839844 64.449219 58.402344 64.433594 58.988281 C 64.445312 59.566406 64.347656 60.125 64.140625 60.667969 C 63.949219 61.128906 63.667969 61.523438 63.292969 61.855469 C 62.921875 62.191406 62.5 62.429688 62.019531 62.574219 C 61.496094 62.742188 60.957031 62.824219 60.410156 62.820312 Z M 59.734375 61.070312 L 60.058594 61.117188 L 60.417969 61.117188 C 60.671875 61.121094 60.921875 61.082031 61.164062 60.996094 C 61.386719 60.921875 61.585938 60.796875 61.753906 60.628906 C 61.929688 60.441406 62.058594 60.222656 62.140625 59.976562 C 62.226562 59.675781 62.269531 59.367188 62.269531 59.054688 C 62.316406 58.449219 62.148438 57.90625 61.773438 57.433594 C 61.40625 57.046875 60.957031 56.867188 60.425781 56.890625 L 59.734375 56.890625 Z M 59.734375 61.070312 " fill-opacity="1" fill-rule="nonzero"/><path fill="#f19e22" d="M 70.726562 55.40625 C 70.792969 55.515625 70.847656 55.632812 70.882812 55.757812 C 70.921875 55.90625 70.945312 56.058594 70.949219 56.214844 C 70.96875 56.464844 70.902344 56.6875 70.746094 56.878906 C 70.597656 57.023438 70.417969 57.09375 70.210938 57.082031 L 67.695312 57.082031 L 67.695312 58.4375 L 70.320312 58.4375 C 70.394531 58.542969 70.449219 58.65625 70.488281 58.777344 C 70.527344 58.929688 70.550781 59.082031 70.550781 59.238281 C 70.578125 59.484375 70.511719 59.699219 70.347656 59.882812 C 70.203125 60.03125 70.027344 60.097656 69.824219 60.085938 L 67.722656 60.085938 L 67.722656 62.609375 C 67.585938 62.644531 67.449219 62.667969 67.308594 62.683594 C 67.125 62.699219 66.941406 62.699219 66.753906 62.683594 C 66.59375 62.699219 66.429688 62.699219 66.265625 62.683594 C 66.140625 62.664062 66.023438 62.613281 65.917969 62.535156 C 65.816406 62.457031 65.742188 62.359375 65.695312 62.242188 C 65.644531 62.078125 65.625 61.90625 65.632812 61.734375 L 65.632812 56.492188 C 65.621094 56.34375 65.644531 56.199219 65.695312 56.0625 C 65.75 55.921875 65.828125 55.800781 65.933594 55.695312 C 66.042969 55.589844 66.164062 55.515625 66.304688 55.464844 C 66.445312 55.414062 66.589844 55.394531 66.738281 55.40625 Z M 70.726562 55.40625 " fill-opacity="1" fill-rule="nonzero"/><g fill="#f19e22" fill-opacity="1"><g transform="translate(99.640218, 56.653863)"><g><path d="M 15.964844 -1.109375 C 15.171875 -1.703125 14.65625 -2.695312 14.65625 -3.644531 L 14.65625 -26.265625 L 16.398438 -26.265625 C 18.816406 -26.265625 21.113281 -24.839844 22.183594 -22.699219 L 22.421875 -22.183594 L 23.253906 -22.183594 L 22.421875 -28.71875 L 0.316406 -28.71875 L -0.515625 -22.183594 L 0.316406 -22.183594 L 0.59375 -22.699219 C 1.664062 -24.839844 3.960938 -26.265625 6.339844 -26.265625 L 8.121094 -26.265625 L 8.121094 -3.644531 C 8.121094 -2.695312 7.566406 -1.703125 6.8125 -1.109375 L 6.457031 -0.832031 L 6.457031 0 L 16.320312 0 L 16.320312 -0.832031 Z M 15.964844 -1.109375 "/></g></g></g><g fill="#f19e22" fill-opacity="1"><g transform="translate(122.41835, 56.653863)"><g><path d="M 0.4375 -10.261719 C 0.4375 -3.921875 4.753906 0.394531 11.050781 0.394531 C 17.507812 0.394531 21.789062 -4.039062 21.789062 -10.417969 C 21.789062 -16.71875 17.628906 -20.957031 11.25 -20.957031 C 4.792969 -20.957031 0.4375 -16.675781 0.4375 -10.261719 Z M 7.011719 -10.179688 C 7.011719 -15.171875 8.675781 -18.460938 11.09375 -18.460938 C 13.546875 -18.460938 15.210938 -15.25 15.210938 -10.261719 C 15.210938 -5.347656 13.546875 -2.058594 11.050781 -2.058594 C 8.636719 -2.058594 7.011719 -5.269531 7.011719 -10.179688 Z M 7.011719 -10.179688 "/></g></g><g transform="translate(144.641887, 56.653863)"><g><path d="M 21.511719 -3.289062 L 21.511719 -20.519531 L 19.847656 -20.519531 L 13.308594 -19.292969 L 13.308594 -18.460938 L 13.667969 -18.183594 C 14.378906 -17.707031 14.816406 -16.835938 14.933594 -15.964844 L 14.933594 -6.894531 C 14.65625 -4.316406 13.308594 -2.695312 11.449219 -2.695312 C 9.46875 -2.695312 8.359375 -4.4375 8.359375 -7.367188 L 8.359375 -20.519531 L 6.734375 -20.519531 L 0.160156 -19.292969 L 0.160156 -18.460938 L 0.515625 -18.183594 C 1.308594 -17.628906 1.820312 -16.597656 1.820312 -15.648438 L 1.820312 -6.933594 C 1.820312 -2.535156 4.121094 0.394531 8.320312 0.394531 C 11.210938 0.394531 13.585938 -0.949219 14.972656 -3.167969 C 15.25 -0.753906 16.796875 0.394531 19.132812 0.394531 C 22.105469 0.394531 23.570312 -1.464844 23.570312 -2.457031 C 23.214844 -1.902344 22.621094 -1.902344 22.621094 -1.902344 C 21.828125 -1.902344 21.511719 -2.296875 21.511719 -3.289062 Z M 21.511719 -3.289062 "/></g></g></g><g fill="#f19e22" fill-opacity="1"><g transform="translate(168.291526, 56.653863)"><g><path d="M 9.863281 -1.109375 C 9.152344 -1.703125 8.597656 -2.695312 8.597656 -3.644531 L 8.597656 -15.371094 C 8.675781 -16.757812 9.191406 -17.390625 9.824219 -17.507812 C 9.625 -15.171875 10.734375 -14.222656 11.488281 -13.785156 C 12.121094 -13.429688 12.875 -13.230469 13.667969 -13.230469 C 15.015625 -13.230469 16.359375 -13.824219 17.152344 -15.132812 C 18.660156 -17.828125 16.757812 -20.957031 13.152344 -20.957031 C 11.371094 -20.957031 9.707031 -20.164062 8.597656 -18.855469 L 8.597656 -20.519531 L 6.972656 -20.519531 L 0.394531 -19.292969 L 0.394531 -18.460938 L 0.753906 -18.183594 C 1.546875 -17.628906 2.058594 -16.597656 2.058594 -15.648438 L 2.058594 -3.644531 C 2.058594 -2.695312 1.546875 -1.703125 0.753906 -1.109375 L 0.394531 -0.832031 L 0.394531 0 L 10.261719 0 L 10.261719 -0.832031 Z M 9.863281 -1.109375 "/></g></g></g><g fill="#f19e22" fill-opacity="1"><g transform="translate(185.800977, 56.653863)"><g/></g><g transform="translate(195.704514, 56.653863)"><g><path d="M 9.941406 -1.109375 C 9.230469 -1.703125 8.675781 -2.695312 8.675781 -3.644531 L 8.675781 -25.074219 C 8.675781 -26.027344 9.230469 -27.054688 9.941406 -27.609375 L 10.339844 -27.929688 L 10.339844 -28.71875 L 0.476562 -28.71875 L 0.476562 -27.929688 L 0.832031 -27.609375 C 1.625 -27.054688 2.140625 -26.027344 2.140625 -25.074219 L 2.140625 -3.644531 C 2.140625 -2.695312 1.625 -1.703125 0.832031 -1.109375 L 0.476562 -0.832031 L 0.476562 0 L 10.339844 0 L 10.339844 -0.832031 Z M 9.941406 -1.109375 "/></g></g></g><g fill="#f19e22" fill-opacity="1"><g transform="translate(206.519171, 56.653863)"><g><path d="M 15.171875 -4.160156 C 15.171875 -1.03125 16.757812 0.394531 19.371094 0.394531 C 22.34375 0.394531 23.808594 -1.464844 23.808594 -2.457031 C 23.453125 -1.902344 22.855469 -1.902344 22.855469 -1.902344 C 22.066406 -1.902344 21.75 -2.296875 21.75 -3.328125 L 21.75 -13.585938 C 21.75 -17.984375 19.449219 -20.957031 15.210938 -20.957031 C 12.398438 -20.957031 10.023438 -19.609375 8.597656 -17.390625 L 8.597656 -20.519531 L 6.972656 -20.519531 L 0.394531 -19.292969 L 0.394531 -18.460938 L 0.753906 -18.183594 C 1.546875 -17.628906 2.058594 -16.597656 2.058594 -15.648438 L 2.058594 -3.644531 C 2.058594 -2.695312 1.546875 -1.703125 0.753906 -1.109375 L 0.394531 -0.832031 L 0.394531 0 L 10.261719 0 L 10.261719 -0.832031 L 9.863281 -1.109375 C 9.152344 -1.703125 8.597656 -2.695312 8.597656 -3.644531 L 8.597656 -13.507812 C 8.875 -16.121094 10.21875 -17.828125 12.082031 -17.828125 C 14.0625 -17.828125 15.171875 -16.082031 15.171875 -13.191406 Z M 15.171875 -4.160156 "/></g></g></g><g fill="#f19e22" fill-opacity="1"><g transform="translate(230.327267, 56.653863)"><g><path d="M 2.019531 -3.644531 C 2.019531 -2.695312 1.546875 -1.703125 0.753906 -1.109375 L 0.394531 -0.832031 L 0.394531 0 L 10.261719 0 L 10.261719 -0.832031 L 9.863281 -1.109375 C 9.109375 -1.703125 8.597656 -2.695312 8.597656 -3.644531 L 8.597656 -18.0625 L 11.25 -18.0625 L 11.25 -20.519531 L 8.597656 -20.519531 L 8.597656 -21.3125 C 8.597656 -25.074219 9.109375 -26.9375 10.578125 -26.9375 C 10.894531 -26.9375 11.210938 -26.859375 11.410156 -26.699219 C 10.65625 -26.105469 10.21875 -25.195312 10.21875 -24.164062 C 10.21875 -22.421875 11.648438 -20.996094 13.429688 -20.996094 C 15.210938 -20.996094 16.597656 -22.421875 16.597656 -24.601562 C 16.597656 -27.214844 14.5 -29.15625 9.984375 -29.15625 C 5.269531 -29.15625 2.058594 -27.054688 2.058594 -21.707031 L 2.058594 -20.519531 L 0.515625 -20.519531 L 0.515625 -18.0625 L 2.058594 -18.0625 Z M 2.019531 -3.644531 "/></g></g></g><g fill="#f19e22" fill-opacity="1"><g transform="translate(241.617292, 56.653863)"><g><path d="M 0.4375 -10.261719 C 0.4375 -3.921875 4.753906 0.394531 11.050781 0.394531 C 17.507812 0.394531 21.789062 -4.039062 21.789062 -10.417969 C 21.789062 -16.71875 17.628906 -20.957031 11.25 -20.957031 C 4.792969 -20.957031 0.4375 -16.675781 0.4375 -10.261719 Z M 7.011719 -10.179688 C 7.011719 -15.171875 8.675781 -18.460938 11.09375 -18.460938 C 13.546875 -18.460938 15.210938 -15.25 15.210938 -10.261719 C 15.210938 -5.347656 13.546875 -2.058594 11.050781 -2.058594 C 8.636719 -2.058594 7.011719 -5.269531 7.011719 -10.179688 Z M 7.011719 -10.179688 "/></g></g></g></svg>