<svg xmlns="http://www.w3.org/2000/svg" xmlns:xlink="http://www.w3.org/1999/xlink" width="485" zoomAndPan="magnify" viewBox="0 0 363.75 93.749996" height="125" preserveAspectRatio="xMidYMid meet" version="1.0"><defs><g/><clipPath id="fee6fa01bc"><path d="M 77.292969 24.113281 L 299.605469 24.113281 L 299.605469 83.996094 L 77.292969 83.996094 Z M 77.292969 24.113281 " clip-rule="nonzero"/></clipPath><clipPath id="4214cb79c4"><path d="M 252.109375 35.449219 L 282.050781 35.449219 L 282.050781 72.875 L 252.109375 72.875 Z M 252.109375 35.449219 " clip-rule="nonzero"/></clipPath><clipPath id="09c733fb8a"><path d="M 272 42 L 282.050781 42 L 282.050781 53 L 272 53 Z M 272 42 " clip-rule="nonzero"/></clipPath><clipPath id="3a022cf7d1"><path d="M 270 35.449219 L 282.050781 35.449219 L 282.050781 47 L 270 47 Z M 270 35.449219 " clip-rule="nonzero"/></clipPath></defs><g clip-path="url(#fee6fa01bc)"><path fill="#231f20" d="M 269.734375 83.992188 L 107.160156 83.992188 C 106.179688 83.992188 105.199219 83.941406 104.222656 83.847656 C 103.246094 83.75 102.273438 83.605469 101.308594 83.414062 C 100.347656 83.222656 99.394531 82.984375 98.457031 82.699219 C 97.515625 82.414062 96.589844 82.085938 95.683594 81.707031 C 94.777344 81.332031 93.890625 80.914062 93.023438 80.453125 C 92.15625 79.988281 91.316406 79.488281 90.5 78.941406 C 89.683594 78.398438 88.894531 77.8125 88.136719 77.191406 C 87.375 76.570312 86.648438 75.914062 85.953125 75.21875 C 85.261719 74.527344 84.601562 73.800781 83.976562 73.042969 C 83.355469 72.285156 82.769531 71.5 82.226562 70.683594 C 81.679688 69.867188 81.175781 69.03125 80.710938 68.164062 C 80.25 67.300781 79.832031 66.414062 79.453125 65.511719 C 79.078125 64.605469 78.746094 63.683594 78.460938 62.746094 C 78.179688 61.808594 77.941406 60.859375 77.746094 59.898438 C 77.554688 58.933594 77.414062 57.96875 77.316406 56.992188 C 77.21875 56.015625 77.171875 55.039062 77.171875 54.058594 C 77.171875 53.078125 77.21875 52.101562 77.316406 51.125 C 77.414062 50.148438 77.554688 49.183594 77.746094 48.222656 C 77.941406 47.257812 78.179688 46.308594 78.460938 45.371094 C 78.746094 44.433594 79.078125 43.511719 79.453125 42.605469 C 79.832031 41.703125 80.25 40.816406 80.710938 39.953125 C 81.175781 39.089844 81.679688 38.25 82.226562 37.433594 C 82.769531 36.617188 83.355469 35.832031 83.976562 35.074219 C 84.601562 34.316406 85.261719 33.589844 85.953125 32.898438 C 86.648438 32.203125 87.375 31.546875 88.136719 30.925781 C 88.894531 30.304688 89.683594 29.71875 90.5 29.175781 C 91.316406 28.628906 92.15625 28.128906 93.023438 27.664062 C 93.890625 27.203125 94.777344 26.785156 95.683594 26.410156 C 96.589844 26.03125 97.515625 25.703125 98.457031 25.417969 C 99.394531 25.132812 100.347656 24.894531 101.308594 24.703125 C 102.273438 24.511719 103.246094 24.367188 104.222656 24.269531 C 105.199219 24.175781 106.179688 24.125 107.160156 24.125 L 269.734375 24.125 C 270.71875 24.125 271.699219 24.175781 272.675781 24.269531 C 273.652344 24.367188 274.625 24.511719 275.585938 24.703125 C 276.550781 24.894531 277.5 25.132812 278.441406 25.417969 C 279.382812 25.703125 280.304688 26.03125 281.214844 26.410156 C 282.121094 26.785156 283.007812 27.203125 283.875 27.664062 C 284.738281 28.128906 285.582031 28.628906 286.398438 29.175781 C 287.214844 29.71875 288.003906 30.304688 288.761719 30.925781 C 289.519531 31.546875 290.246094 32.203125 290.941406 32.898438 C 291.636719 33.589844 292.296875 34.316406 292.917969 35.074219 C 293.542969 35.832031 294.125 36.617188 294.671875 37.433594 C 295.21875 38.25 295.722656 39.089844 296.183594 39.953125 C 296.648438 40.816406 297.066406 41.703125 297.441406 42.605469 C 297.820312 43.511719 298.148438 44.433594 298.433594 45.371094 C 298.71875 46.308594 298.957031 47.257812 299.148438 48.222656 C 299.339844 49.183594 299.484375 50.148438 299.582031 51.125 C 299.675781 52.101562 299.726562 53.078125 299.726562 54.058594 C 299.726562 55.039062 299.675781 56.015625 299.582031 56.992188 C 299.484375 57.96875 299.339844 58.933594 299.148438 59.898438 C 298.957031 60.859375 298.71875 61.808594 298.433594 62.746094 C 298.148438 63.683594 297.820312 64.605469 297.441406 65.511719 C 297.066406 66.414062 296.648438 67.300781 296.183594 68.164062 C 295.722656 69.03125 295.21875 69.867188 294.671875 70.683594 C 294.125 71.5 293.542969 72.285156 292.917969 73.042969 C 292.296875 73.800781 291.636719 74.527344 290.941406 75.21875 C 290.246094 75.914062 289.519531 76.570312 288.761719 77.191406 C 288.003906 77.8125 287.214844 78.398438 286.398438 78.941406 C 285.582031 79.488281 284.738281 79.988281 283.875 80.453125 C 283.007812 80.914062 282.121094 81.332031 281.214844 81.707031 C 280.304688 82.085938 279.382812 82.414062 278.441406 82.699219 C 277.5 82.984375 276.550781 83.222656 275.585938 83.414062 C 274.625 83.605469 273.652344 83.75 272.675781 83.847656 C 271.699219 83.941406 270.71875 83.992188 269.734375 83.992188 Z M 107.160156 26.847656 C 106.269531 26.847656 105.378906 26.890625 104.488281 26.980469 C 103.601562 27.066406 102.71875 27.199219 101.84375 27.371094 C 100.96875 27.546875 100.101562 27.765625 99.25 28.023438 C 98.394531 28.28125 97.554688 28.582031 96.730469 28.921875 C 95.90625 29.265625 95.097656 29.644531 94.3125 30.066406 C 93.523438 30.488281 92.757812 30.945312 92.015625 31.4375 C 91.273438 31.933594 90.558594 32.464844 89.867188 33.03125 C 89.179688 33.597656 88.515625 34.195312 87.886719 34.824219 C 87.253906 35.453125 86.65625 36.113281 86.089844 36.800781 C 85.523438 37.492188 84.992188 38.207031 84.496094 38.945312 C 84 39.6875 83.542969 40.449219 83.121094 41.234375 C 82.699219 42.023438 82.320312 42.828125 81.976562 43.648438 C 81.636719 44.472656 81.335938 45.308594 81.078125 46.164062 C 80.816406 47.015625 80.601562 47.878906 80.425781 48.753906 C 80.253906 49.625 80.121094 50.507812 80.035156 51.394531 C 79.949219 52.277344 79.902344 53.167969 79.902344 54.058594 C 79.902344 54.949219 79.949219 55.839844 80.035156 56.726562 C 80.121094 57.609375 80.253906 58.492188 80.425781 59.363281 C 80.601562 60.238281 80.816406 61.101562 81.078125 61.953125 C 81.335938 62.808594 81.636719 63.644531 81.976562 64.46875 C 82.320312 65.289062 82.699219 66.09375 83.121094 66.882812 C 83.542969 67.667969 84 68.429688 84.496094 69.171875 C 84.992188 69.910156 85.523438 70.625 86.089844 71.316406 C 86.65625 72.003906 87.253906 72.664062 87.886719 73.292969 C 88.515625 73.925781 89.179688 74.523438 89.867188 75.085938 C 90.558594 75.652344 91.273438 76.183594 92.015625 76.679688 C 92.757812 77.171875 93.523438 77.632812 94.3125 78.050781 C 95.097656 78.472656 95.90625 78.851562 96.730469 79.195312 C 97.554688 79.535156 98.394531 79.835938 99.25 80.09375 C 100.101562 80.351562 100.96875 80.570312 101.84375 80.746094 C 102.71875 80.917969 103.601562 81.050781 104.488281 81.136719 C 105.378906 81.226562 106.269531 81.269531 107.160156 81.269531 L 269.734375 81.269531 C 270.628906 81.269531 271.519531 81.226562 272.40625 81.136719 C 273.296875 81.050781 274.179688 80.917969 275.054688 80.746094 C 275.929688 80.570312 276.792969 80.351562 277.648438 80.09375 C 278.503906 79.835938 279.34375 79.535156 280.167969 79.195312 C 280.992188 78.851562 281.796875 78.472656 282.585938 78.050781 C 283.375 77.632812 284.136719 77.171875 284.878906 76.679688 C 285.621094 76.183594 286.339844 75.652344 287.027344 75.085938 C 287.71875 74.523438 288.378906 73.925781 289.011719 73.292969 C 289.640625 72.664062 290.242188 72.003906 290.808594 71.316406 C 291.375 70.625 291.90625 69.910156 292.398438 69.171875 C 292.894531 68.429688 293.355469 67.667969 293.777344 66.882812 C 294.195312 66.09375 294.578125 65.289062 294.917969 64.46875 C 295.261719 63.644531 295.5625 62.808594 295.820312 61.953125 C 296.078125 61.101562 296.296875 60.238281 296.46875 59.363281 C 296.644531 58.492188 296.773438 57.609375 296.863281 56.726562 C 296.949219 55.839844 296.992188 54.949219 296.992188 54.058594 C 296.992188 53.167969 296.949219 52.277344 296.863281 51.394531 C 296.773438 50.507812 296.644531 49.625 296.46875 48.753906 C 296.296875 47.878906 296.078125 47.015625 295.820312 46.164062 C 295.5625 45.308594 295.261719 44.472656 294.917969 43.648438 C 294.578125 42.828125 294.195312 42.023438 293.777344 41.238281 C 293.355469 40.449219 292.894531 39.6875 292.398438 38.945312 C 291.90625 38.207031 291.375 37.492188 290.808594 36.800781 C 290.242188 36.113281 289.640625 35.453125 289.011719 34.824219 C 288.378906 34.195312 287.71875 33.597656 287.027344 33.03125 C 286.339844 32.464844 285.621094 31.933594 284.878906 31.441406 C 284.136719 30.945312 283.375 30.488281 282.585938 30.066406 C 281.796875 29.644531 280.992188 29.265625 280.167969 28.921875 C 279.34375 28.582031 278.503906 28.28125 277.648438 28.023438 C 276.792969 27.765625 275.929688 27.546875 275.054688 27.371094 C 274.179688 27.199219 273.296875 27.066406 272.40625 26.980469 C 271.519531 26.890625 270.628906 26.847656 269.734375 26.847656 Z M 107.160156 26.847656 " fill-opacity="1" fill-rule="nonzero"/></g><g fill="#f19e22" fill-opacity="1"><g transform="translate(95.102325, 63.331185)"><g><path d="M 15 -1.042969 C 14.253906 -1.601562 13.769531 -2.53125 13.769531 -3.425781 L 13.769531 -24.675781 L 15.40625 -24.675781 C 17.679688 -24.675781 19.835938 -23.335938 20.839844 -21.324219 L 21.066406 -20.839844 L 21.847656 -20.839844 L 21.066406 -26.980469 L 0.296875 -26.980469 L -0.484375 -20.839844 L 0.296875 -20.839844 L 0.558594 -21.324219 C 1.5625 -23.335938 3.722656 -24.675781 5.953125 -24.675781 L 7.628906 -24.675781 L 7.628906 -3.425781 C 7.628906 -2.53125 7.109375 -1.601562 6.402344 -1.042969 L 6.066406 -0.78125 L 6.066406 0 L 15.332031 0 L 15.332031 -0.78125 Z M 15 -1.042969 "/></g></g></g><g fill="#f19e22" fill-opacity="1"><g transform="translate(116.501199, 63.331185)"><g><path d="M 0.410156 -9.640625 C 0.410156 -3.683594 4.464844 0.371094 10.382812 0.371094 C 16.449219 0.371094 20.46875 -3.796875 20.46875 -9.789062 C 20.46875 -15.707031 16.5625 -19.6875 10.570312 -19.6875 C 4.503906 -19.6875 0.410156 -15.667969 0.410156 -9.640625 Z M 6.585938 -9.566406 C 6.585938 -14.253906 8.148438 -17.34375 10.421875 -17.34375 C 12.726562 -17.34375 14.292969 -14.328125 14.292969 -9.640625 C 14.292969 -5.023438 12.726562 -1.933594 10.382812 -1.933594 C 8.113281 -1.933594 6.585938 -4.949219 6.585938 -9.566406 Z M 6.585938 -9.566406 "/></g></g></g><g fill="#f19e22" fill-opacity="1"><g transform="translate(137.379059, 63.331185)"><g><path d="M 20.207031 -3.089844 L 20.207031 -19.277344 L 18.644531 -19.277344 L 12.503906 -18.125 L 12.503906 -17.34375 L 12.839844 -17.082031 C 13.507812 -16.636719 13.917969 -15.816406 14.03125 -15 L 14.03125 -6.476562 C 13.769531 -4.054688 12.503906 -2.53125 10.753906 -2.53125 C 8.894531 -2.53125 7.851562 -4.167969 7.851562 -6.921875 L 7.851562 -19.277344 L 6.328125 -19.277344 L 0.148438 -18.125 L 0.148438 -17.34375 L 0.484375 -17.082031 C 1.226562 -16.5625 1.710938 -15.59375 1.710938 -14.699219 L 1.710938 -6.511719 C 1.710938 -2.382812 3.871094 0.371094 7.816406 0.371094 C 10.53125 0.371094 12.765625 -0.894531 14.066406 -2.976562 C 14.328125 -0.707031 15.78125 0.371094 17.976562 0.371094 C 20.765625 0.371094 22.144531 -1.378906 22.144531 -2.308594 C 21.808594 -1.785156 21.25 -1.785156 21.25 -1.785156 C 20.507812 -1.785156 20.207031 -2.160156 20.207031 -3.089844 Z M 20.207031 -3.089844 "/></g></g></g><g fill="#f19e22" fill-opacity="1"><g transform="translate(159.596672, 63.331185)"><g><path d="M 9.265625 -1.042969 C 8.597656 -1.601562 8.074219 -2.53125 8.074219 -3.425781 L 8.074219 -14.441406 C 8.148438 -15.742188 8.632812 -16.339844 9.230469 -16.449219 C 9.042969 -14.253906 10.085938 -13.359375 10.792969 -12.953125 C 11.386719 -12.617188 12.09375 -12.429688 12.839844 -12.429688 C 14.105469 -12.429688 15.371094 -12.988281 16.113281 -14.214844 C 17.527344 -16.746094 15.742188 -19.6875 12.355469 -19.6875 C 10.679688 -19.6875 9.117188 -18.941406 8.074219 -17.714844 L 8.074219 -19.277344 L 6.550781 -19.277344 L 0.371094 -18.125 L 0.371094 -17.34375 L 0.707031 -17.082031 C 1.453125 -16.5625 1.933594 -15.59375 1.933594 -14.699219 L 1.933594 -3.425781 C 1.933594 -2.53125 1.453125 -1.601562 0.707031 -1.042969 L 0.371094 -0.78125 L 0.371094 0 L 9.640625 0 L 9.640625 -0.78125 Z M 9.265625 -1.042969 "/></g></g></g><g fill="#f19e22" fill-opacity="1"><g transform="translate(176.045897, 63.331185)"><g/></g></g><g fill="#f19e22" fill-opacity="1"><g transform="translate(185.349758, 63.331185)"><g><path d="M 1.453125 -23.820312 C 1.453125 -21.882812 3.050781 -20.28125 4.988281 -20.28125 C 6.960938 -20.28125 8.558594 -21.882812 8.558594 -23.820312 C 8.558594 -25.753906 6.960938 -27.390625 4.988281 -27.390625 C 3.050781 -27.390625 1.453125 -25.753906 1.453125 -23.820312 Z M 9.265625 -1.042969 C 8.597656 -1.601562 8.074219 -2.53125 8.074219 -3.425781 L 8.074219 -19.277344 L 6.550781 -19.277344 L 0.371094 -18.125 L 0.371094 -17.34375 L 0.707031 -17.082031 C 1.453125 -16.5625 1.933594 -15.59375 1.933594 -14.699219 L 1.933594 -3.425781 C 1.933594 -2.53125 1.453125 -1.601562 0.707031 -1.042969 L 0.371094 -0.78125 L 0.371094 0 L 9.640625 0 L 9.640625 -0.78125 Z M 9.265625 -1.042969 "/></g></g></g><g fill="#f19e22" fill-opacity="1"><g transform="translate(195.211851, 63.331185)"><g><path d="M 14.253906 -3.90625 C 14.253906 -0.96875 15.742188 0.371094 18.199219 0.371094 C 20.988281 0.371094 22.367188 -1.378906 22.367188 -2.308594 C 22.03125 -1.785156 21.472656 -1.785156 21.472656 -1.785156 C 20.730469 -1.785156 20.433594 -2.160156 20.433594 -3.125 L 20.433594 -12.765625 C 20.433594 -16.894531 18.273438 -19.6875 14.292969 -19.6875 C 11.648438 -19.6875 9.414062 -18.421875 8.074219 -16.339844 L 8.074219 -19.277344 L 6.550781 -19.277344 L 0.371094 -18.125 L 0.371094 -17.34375 L 0.707031 -17.082031 C 1.453125 -16.5625 1.933594 -15.59375 1.933594 -14.699219 L 1.933594 -3.425781 C 1.933594 -2.53125 1.453125 -1.601562 0.707031 -1.042969 L 0.371094 -0.78125 L 0.371094 0 L 9.640625 0 L 9.640625 -0.78125 L 9.265625 -1.042969 C 8.597656 -1.601562 8.074219 -2.53125 8.074219 -3.425781 L 8.074219 -12.691406 C 8.335938 -15.148438 9.601562 -16.746094 11.351562 -16.746094 C 13.210938 -16.746094 14.253906 -15.109375 14.253906 -12.394531 Z M 14.253906 -3.90625 "/></g></g></g><g fill="#f19e22" fill-opacity="1"><g transform="translate(217.57832, 63.331185)"><g><path d="M 1.898438 -3.425781 C 1.898438 -2.53125 1.453125 -1.601562 0.707031 -1.042969 L 0.371094 -0.78125 L 0.371094 0 L 9.640625 0 L 9.640625 -0.78125 L 9.265625 -1.042969 C 8.558594 -1.601562 8.074219 -2.53125 8.074219 -3.425781 L 8.074219 -16.96875 L 10.570312 -16.96875 L 10.570312 -19.277344 L 8.074219 -19.277344 L 8.074219 -20.023438 C 8.074219 -23.558594 8.558594 -25.308594 9.9375 -25.308594 C 10.234375 -25.308594 10.53125 -25.234375 10.71875 -25.082031 C 10.011719 -24.527344 9.601562 -23.667969 9.601562 -22.703125 C 9.601562 -21.066406 10.941406 -19.726562 12.617188 -19.726562 C 14.292969 -19.726562 15.59375 -21.066406 15.59375 -23.113281 C 15.59375 -25.566406 13.621094 -27.390625 9.378906 -27.390625 C 4.949219 -27.390625 1.933594 -25.417969 1.933594 -20.394531 L 1.933594 -19.277344 L 0.484375 -19.277344 L 0.484375 -16.96875 L 1.933594 -16.96875 Z M 1.898438 -3.425781 "/></g></g></g><g fill="#f19e22" fill-opacity="1"><g transform="translate(228.184712, 63.331185)"><g><path d="M 0.410156 -9.640625 C 0.410156 -3.683594 4.464844 0.371094 10.382812 0.371094 C 16.449219 0.371094 20.46875 -3.796875 20.46875 -9.789062 C 20.46875 -15.707031 16.5625 -19.6875 10.570312 -19.6875 C 4.503906 -19.6875 0.410156 -15.667969 0.410156 -9.640625 Z M 6.585938 -9.566406 C 6.585938 -14.253906 8.148438 -17.34375 10.421875 -17.34375 C 12.726562 -17.34375 14.292969 -14.328125 14.292969 -9.640625 C 14.292969 -5.023438 12.726562 -1.933594 10.382812 -1.933594 C 8.113281 -1.933594 6.585938 -4.949219 6.585938 -9.566406 Z M 6.585938 -9.566406 "/></g></g></g><g clip-path="url(#4214cb79c4)"><path fill="#de3b38" d="M 255.855469 35.449219 L 270.824219 35.449219 L 282.050781 46.675781 L 282.050781 69.132812 C 282.050781 69.628906 281.957031 70.105469 281.765625 70.5625 C 281.578125 71.023438 281.308594 71.425781 280.957031 71.777344 C 280.605469 72.128906 280.199219 72.398438 279.742188 72.589844 C 279.28125 72.78125 278.804688 72.875 278.308594 72.875 L 255.855469 72.875 C 255.355469 72.875 254.878906 72.78125 254.421875 72.589844 C 253.964844 72.398438 253.558594 72.128906 253.207031 71.777344 C 252.855469 71.425781 252.585938 71.023438 252.394531 70.5625 C 252.207031 70.105469 252.109375 69.628906 252.109375 69.132812 L 252.109375 39.191406 C 252.109375 38.695312 252.207031 38.21875 252.394531 37.757812 C 252.585938 37.300781 252.855469 36.894531 253.207031 36.546875 C 253.558594 36.195312 253.964844 35.921875 254.421875 35.734375 C 254.878906 35.542969 255.355469 35.449219 255.855469 35.449219 Z M 255.855469 35.449219 " fill-opacity="1" fill-rule="nonzero"/></g><g fill="#ffffff" fill-opacity="1"><g transform="translate(255.853714, 62.526524)"><g><path d="M 7.109375 -5.28125 C 7.109375 -4.78125 6.992188 -4.332031 6.765625 -3.9375 C 6.535156 -3.550781 6.207031 -3.25 5.78125 -3.03125 C 5.363281 -2.820312 4.867188 -2.71875 4.296875 -2.71875 L 2.375 -2.71875 L 2.375 0 L 0.75 0 L 0.75 -7.734375 L 4.21875 -7.734375 C 5.144531 -7.734375 5.859375 -7.519531 6.359375 -7.09375 C 6.859375 -6.664062 7.109375 -6.0625 7.109375 -5.28125 Z M 5.484375 -5.25 C 5.484375 -6.0625 5.003906 -6.46875 4.046875 -6.46875 L 2.375 -6.46875 L 2.375 -3.96875 L 4.09375 -3.96875 C 4.53125 -3.96875 4.867188 -4.078125 5.109375 -4.296875 C 5.359375 -4.515625 5.484375 -4.832031 5.484375 -5.25 Z M 5.484375 -5.25 "/></g></g><g transform="translate(263.342563, 62.526524)"><g><path d="M 7.640625 -3.921875 C 7.640625 -3.117188 7.484375 -2.421875 7.171875 -1.828125 C 6.859375 -1.234375 6.414062 -0.78125 5.84375 -0.46875 C 5.269531 -0.15625 4.613281 0 3.875 0 L 0.75 0 L 0.75 -7.734375 L 3.546875 -7.734375 C 4.847656 -7.734375 5.851562 -7.40625 6.5625 -6.75 C 7.28125 -6.09375 7.640625 -5.148438 7.640625 -3.921875 Z M 6.015625 -3.921875 C 6.015625 -4.753906 5.796875 -5.390625 5.359375 -5.828125 C 4.929688 -6.265625 4.316406 -6.484375 3.515625 -6.484375 L 2.375 -6.484375 L 2.375 -1.25 L 3.734375 -1.25 C 4.429688 -1.25 4.984375 -1.488281 5.390625 -1.96875 C 5.804688 -2.445312 6.015625 -3.097656 6.015625 -3.921875 Z M 6.015625 -3.921875 "/></g></g><g transform="translate(271.450913, 62.526524)"><g><path d="M 2.375 -6.484375 L 2.375 -4.09375 L 6.328125 -4.09375 L 6.328125 -2.84375 L 2.375 -2.84375 L 2.375 0 L 0.75 0 L 0.75 -7.734375 L 6.453125 -7.734375 L 6.453125 -6.484375 Z M 2.375 -6.484375 "/></g></g></g><g clip-path="url(#09c733fb8a)"><path fill="#d13532" d="M 282.050781 52.214844 L 272.359375 45.964844 L 277.207031 42.054688 L 282.050781 46.675781 Z M 282.050781 52.214844 " fill-opacity="1" fill-rule="nonzero"/></g><g clip-path="url(#3a022cf7d1)"><path fill="#d56c6f" d="M 270.824219 35.449219 L 270.824219 42.933594 C 270.824219 43.429688 270.917969 43.90625 271.109375 44.367188 C 271.300781 44.824219 271.570312 45.230469 271.921875 45.582031 C 272.269531 45.929688 272.675781 46.203125 273.132812 46.390625 C 273.59375 46.582031 274.070312 46.675781 274.566406 46.675781 L 282.050781 46.675781 Z M 270.824219 35.449219 " fill-opacity="1" fill-rule="nonzero"/></g></svg>